<?xml version="1.0" encoding="UTF-8"?>
<svg version="1.1" xmlns="http://www.w3.org/2000/svg" width="500" height="282">
<path d="M0 0 C165 0 330 0 500 0 C500 93.06 500 186.12 500 282 C335 282 170 282 0 282 C0 188.94 0 95.88 0 0 Z " fill="#F7FE2B" transform="translate(0,0)"/>
<path d="M0 0 C6.31375757 2.86321564 9.97023068 7.62325178 13.515625 13.4140625 C16.633201 21.7213758 15.36811864 31.91454047 12.04296875 39.9375 C9.18058909 44.86493909 5.06646605 47.88329029 0.265625 50.7890625 C-6.87170143 52.31848959 -12.96482594 51.86229532 -19.359375 48.3515625 C-21.009375 47.0315625 -22.659375 45.7115625 -24.359375 44.3515625 C-24.359375 52.2715625 -24.359375 60.1915625 -24.359375 68.3515625 C-26.999375 68.3515625 -29.639375 68.3515625 -32.359375 68.3515625 C-32.359375 46.2415625 -32.359375 24.1315625 -32.359375 1.3515625 C-29.719375 1.3515625 -27.079375 1.3515625 -24.359375 1.3515625 C-24.359375 3.0015625 -24.359375 4.6515625 -24.359375 6.3515625 C-23.52792969 5.71927734 -23.52792969 5.71927734 -22.6796875 5.07421875 C-21.59300781 4.25244141 -21.59300781 4.25244141 -20.484375 3.4140625 C-19.76507813 2.86878906 -19.04578125 2.32351562 -18.3046875 1.76171875 C-13.12432609 -1.99352315 -6.03103421 -1.65753589 0 0 Z " fill="#060601" transform="translate(279.359375,121.6484375)"/>
<path d="M0 0 C4.92705975 3.21535569 9.52746849 7.46542367 11.60546875 13.109375 C13.30133699 21.8662219 12.74066367 30.51833403 8.34765625 38.328125 C4.25705134 43.63485569 -0.20130807 48.05198619 -6.96484375 49.328125 C-14.43005595 50.00390093 -20.8179896 49.97272107 -26.96484375 45.328125 C-32.87745942 40.14427358 -36.27452074 33.32240068 -37.34765625 25.55859375 C-37.69539472 17.27082694 -35.26475634 11.01428301 -30.21484375 4.515625 C-22.16656386 -4.0932316 -10.43551912 -5.37874307 0 0 Z " fill="#0B0C02" transform="translate(335.96484375,123.671875)"/>
<path d="M0 0 C6.80452052 3.52508554 11.25248273 7.61617142 13.65234375 15.0859375 C15.31849179 23.87685192 14.56037332 32.46241998 10.0625 40.25 C7.5625 43.1875 7.5625 43.1875 5.0625 45.25 C4.423125 45.806875 3.78375 46.36375 3.125 46.9375 C-3.00511509 50.83848233 -9.86882109 51.25473046 -16.9375 50.25 C-24.74487723 47.21559751 -29.33682396 42.46060715 -33.03515625 35.05078125 C-35.23151191 28.23352146 -35.15388352 19.17583867 -33.02734375 12.3125 C-26.50888679 -0.09562387 -13.14536979 -5.5615026 0 0 Z " fill="#090901" transform="translate(422.9375,122.75)"/>
<path d="M0 0 C3.46679688 0.04882812 3.46679688 0.04882812 6.93359375 0.09765625 C12.15166931 9.7735685 16.13799668 20.00569859 20.30859375 30.16015625 C21.04523405 31.94610335 21.78221113 33.73191158 22.51953125 35.51757812 C23.96454014 39.0180935 25.4050401 42.52041666 26.84277344 46.02392578 C28.22396743 49.38566796 29.62102912 52.74010139 31.03222656 56.08935547 C31.35994049 56.87152939 31.68765442 57.65370331 32.02529907 58.45957947 C32.64044702 59.92652789 33.25966285 61.39177955 33.88363647 62.85499573 C35.10274858 65.77254967 35.93359375 67.9010416 35.93359375 71.09765625 C32.96359375 71.09765625 29.99359375 71.09765625 26.93359375 71.09765625 C17.93359375 51.69601691 17.93359375 51.69601691 17.93359375 48.09765625 C7.70359375 48.09765625 -2.52640625 48.09765625 -13.06640625 48.09765625 C-13.72640625 51.06765625 -14.38640625 54.03765625 -15.06640625 57.09765625 C-16.3203125 60.27734375 -16.3203125 60.27734375 -17.62890625 62.97265625 C-18.93264594 65.68845821 -20.11273551 68.23664404 -21.06640625 71.09765625 C-24.03640625 71.09765625 -27.00640625 71.09765625 -30.06640625 71.09765625 C-29.49088436 66.87807158 -28.50006559 63.3133571 -26.8359375 59.3984375 C-26.36905518 58.28758789 -25.90217285 57.17673828 -25.42114258 56.03222656 C-24.91220459 54.83694336 -24.4032666 53.64166016 -23.87890625 52.41015625 C-22.79157066 49.8297975 -21.70974442 47.24714868 -20.62890625 44.6640625 C-20.34469315 43.98596527 -20.06048004 43.30786804 -19.76765442 42.60922241 C-15.87090914 33.28141329 -12.16037248 23.87768698 -8.4413147 14.47793579 C-7.56441329 12.26184534 -6.68466762 10.04690053 -5.8046875 7.83203125 C-5.41017395 6.82939491 -5.41017395 6.82939491 -5.00769043 5.8065033 C-2.74945483 0.12993643 -2.74945483 0.12993643 0 0 Z " fill="#090A01" transform="translate(205.06640625,100.90234375)"/>
<path d="M0 0 C4.004793 2.0023965 6.6587028 4.17998877 9 8 C11.12980695 14.38942085 11.19604264 22.40009033 8.3125 28.5625 C6.26195721 31.89551285 4.57649605 34.21175197 1 36 C-3.72967296 36.69847491 -8.54486536 37.079495 -13.0078125 35.1171875 C-16.75410801 32.27452106 -19.06163083 28.54449863 -20 24 C-20.58808805 17.7706229 -20.98778561 12.12190982 -18.3125 6.375 C-17.549375 5.59125 -16.78625 4.8075 -16 4 C-14.9790625 2.824375 -14.9790625 2.824375 -13.9375 1.625 C-9.39679453 -0.88687962 -5.06983511 -0.74446918 0 0 Z " fill="#F3FA2B" transform="translate(418,129)"/>
<path d="M0 0 C3.61480895 1.65268503 5.51275581 4.35034108 7.875 7.5 C10.06344275 14.30848855 10.33146536 22.04795932 7.25 28.625 C4.85778088 32.64020877 2.44108087 34.51963971 -2 36 C-6.26494847 36.58904009 -10.27124317 36.94009039 -14.140625 34.8359375 C-17.68928994 31.92841791 -19.65223582 29.4463622 -21 25 C-21.3359375 21.44140625 -21.3359375 21.44140625 -21.375 17.5625 C-21.40335937 16.28503906 -21.43171875 15.00757813 -21.4609375 13.69140625 C-20.80749697 8.45834434 -18.31600134 5.56275159 -15 1.625 C-10.16448858 -0.99423535 -5.36554994 -0.83609518 0 0 Z " fill="#F3FA2B" transform="translate(330,129)"/>
<path d="M0 0 C5.14040551 4.77323369 6.86080966 8.3907132 7.125 15.3125 C6.85416788 22.51663447 5.20652619 27.91743872 0 33 C-4.59619905 34.95764034 -8.45320673 35.20703119 -13.375 34.4375 C-18.08554391 32.34392493 -20.62367561 29.54254661 -22.67578125 24.91015625 C-24.33236865 19.05194494 -24.60289865 12.66828251 -22.421875 6.9296875 C-17.37685959 -1.72347184 -9.18447952 -4.25207385 0 0 Z " fill="#F2F82A" transform="translate(278.375,130.5625)"/>
<path d="M0 0 C3.39672268 0.45725113 5.24234171 1.7959627 7.75 4.0625 C8.67039063 4.88427734 8.67039063 4.88427734 9.609375 5.72265625 C10.06828125 6.14417969 10.5271875 6.56570312 11 7 C9.51151188 10.39344442 7.5673138 12.78229967 5.0625 15.5 C4.26972656 16.36882812 3.47695312 17.23765625 2.66015625 18.1328125 C0.78122831 20.15797124 -1.10584461 22.17269575 -3.00390625 24.1796875 C-3.50220947 24.71142578 -4.0005127 25.24316406 -4.51391602 25.79101562 C-5.4883911 26.82968728 -6.469169 27.86248916 -7.45678711 28.88867188 C-9.95419828 31.55473588 -11.29367632 33.43515402 -12 37 C-11.10692139 36.69707031 -10.21384277 36.39414063 -9.29370117 36.08203125 C-5.97947269 34.96024591 -2.66393075 33.84252646 0.65258789 32.72753906 C2.08770643 32.24413754 3.52228229 31.75912183 4.95629883 31.27246094 C7.01763614 30.57321879 9.08085542 29.87980523 11.14453125 29.1875 C12.38565674 28.76855469 13.62678223 28.34960938 14.90551758 27.91796875 C18 27 18 27 21 27 C22.00109515 30.31070838 22.10356134 33.30084769 22.0625 36.75 C22.05347656 37.73484375 22.04445312 38.7196875 22.03515625 39.734375 C22.02355469 40.48203125 22.01195312 41.2296875 22 42 C17.08876411 42.09898615 12.17811062 42.17152247 7.26611328 42.21972656 C5.59576298 42.23982393 3.92548287 42.26710683 2.25537109 42.30175781 C-0.1476372 42.35036119 -2.54971434 42.37298656 -4.953125 42.390625 C-5.69806213 42.41127014 -6.44299927 42.43191528 -7.21051025 42.45318604 C-10.5834242 42.45464092 -12.65922491 42.22456853 -15.50292969 40.35058594 C-17.49677881 37.21999569 -17.53392312 35.67152472 -17 32 C-15.93673392 29.43054452 -14.84577676 27.10139113 -13.53515625 24.66796875 C-13.1823912 23.99075272 -12.82962616 23.31353668 -12.46617126 22.61579895 C-11.34297661 20.466842 -10.20285911 18.32738856 -9.0625 16.1875 C-8.29904832 14.73038405 -7.53666681 13.27270685 -6.77539062 11.81445312 C-1.21938916 1.21938916 -1.21938916 1.21938916 0 0 Z " fill="#0D0D02" transform="translate(129,99)"/>
<path d="M0 0 C4.51656748 0.57449226 7.54962791 2.00158424 11.47631836 4.20117188 C12.17668716 4.57850464 12.87705597 4.9558374 13.59864807 5.34460449 C15.81683261 6.54370189 18.02339093 7.76258342 20.23022461 8.98242188 C21.73926522 9.80276738 23.24902458 10.62179218 24.75952148 11.43945312 C28.44574791 13.43859073 32.12168833 15.45553547 35.79272461 17.48242188 C34.36319233 20.44937567 32.85452068 22.76039154 30.66772461 25.23242188 C30.12889648 25.84601563 29.59006836 26.45960938 29.03491211 27.09179688 C28.62499023 27.55070312 28.21506836 28.00960937 27.79272461 28.48242188 C24.78590661 27.1424269 22.79509852 25.68396896 20.54272461 23.29492188 C17.41229716 20.06394536 14.12530791 17.11532207 10.71069336 14.18945312 C8.88999366 12.56899331 7.21825704 10.87580497 5.54272461 9.10742188 C2.89568481 6.58070206 2.15881464 6.10097688 -1.20727539 5.48242188 C-0.93463867 6.30444092 -0.66200195 7.12645996 -0.38110352 7.97338867 C0.63116597 11.03723425 1.63675941 14.1031688 2.63793945 17.1706543 C3.07181594 18.49541737 3.50830867 19.81932666 3.94750977 21.14233398 C4.57995037 23.04897747 5.20207869 24.95903173 5.82397461 26.86914062 C6.20102539 28.01600342 6.57807617 29.16286621 6.96655273 30.34448242 C7.72674503 33.23182037 7.96742882 35.51972971 7.79272461 38.48242188 C4.63766319 39.41862001 1.82685959 39.58813418 -1.45727539 39.54492188 C-2.34930664 39.53589844 -3.24133789 39.526875 -4.16040039 39.51757812 C-4.83586914 39.50597656 -5.51133789 39.494375 -6.20727539 39.48242188 C-6.2815154 34.57115985 -6.3359195 29.66022553 -6.37207031 24.74853516 C-6.38714293 23.07822987 -6.40760459 21.40796407 -6.43359375 19.73779297 C-6.47004512 17.33486174 -6.4870167 14.93245444 -6.50024414 12.52929688 C-6.515728 11.78435974 -6.53121185 11.03942261 -6.54716492 10.27191162 C-6.54815203 7.22063106 -6.34204865 4.79452838 -5.12646484 1.97949219 C-3.20727539 0.48242188 -3.20727539 0.48242188 0 0 Z " fill="#0C0C02" transform="translate(108.207275390625,141.517578125)"/>
<path d="M0 0 C4.62 0 9.24 0 14 0 C14.09898615 4.91123589 14.17152247 9.82188938 14.21972656 14.73388672 C14.23982393 16.40423702 14.26710683 18.07451713 14.30175781 19.74462891 C14.35036119 22.1476372 14.37298656 24.54971434 14.390625 26.953125 C14.41127014 27.69806213 14.43191528 28.44299927 14.45318604 29.21051025 C14.45464092 32.5834242 14.22456853 34.65922491 12.35058594 37.50292969 C9.23956498 39.48431528 7.64393032 39.51923546 4 39 C0.79614258 37.65478516 0.79614258 37.65478516 -2.60546875 35.7890625 C-3.2113533 35.46086517 -3.81723785 35.13266785 -4.44148254 34.79452515 C-6.36342956 33.74961648 -8.27525763 32.68754435 -10.1875 31.625 C-11.48311507 30.91815362 -12.77933405 30.212413 -14.07617188 29.5078125 C-23.22930457 24.51379695 -23.22930457 24.51379695 -27 22 C-26.68232368 16.59950264 -23.80003673 14.47662935 -20 11 C-14.50703048 12.46549475 -11.36116207 16.33962212 -7.5625 20.3125 C-0.23931204 28.53679248 -0.23931204 28.53679248 9 34 C8.06815214 30.66506073 7.12848355 27.33237201 6.1875 24 C5.92646484 23.06542969 5.66542969 22.13085938 5.39648438 21.16796875 C4.18964331 16.90677686 2.94519017 12.73940586 1.30078125 8.625 C0 5 0 5 0 0 Z " fill="#090901" transform="translate(97,92)"/>
<path d="M0 0 C4.76884567 -0.07425143 9.5373536 -0.12864936 14.30664062 -0.16479492 C15.92844506 -0.17986565 17.55020884 -0.20032593 19.171875 -0.22631836 C21.50531046 -0.26277829 23.83820631 -0.27974314 26.171875 -0.29296875 C26.89493835 -0.30845261 27.61800171 -0.32393646 28.36297607 -0.33988953 C31.3635811 -0.34088881 33.72433189 -0.1196923 36.48925781 1.08081055 C38 3 38 3 38.46875 6.22094727 C37.93703645 10.5076108 36.53648206 13.72938879 34.5 17.46484375 C34.14486328 18.14301651 33.78972656 18.82118927 33.42382812 19.51991272 C32.29585036 21.66644982 31.14840027 23.80183197 30 25.9375 C29.22785221 27.39839455 28.45700492 28.85997726 27.6875 30.32226562 C25.80661713 33.88964696 23.90820903 37.447166 22 41 C17.63204596 41 17.25341007 40.77237852 14.25 38 C13.63640625 37.443125 13.0228125 36.88625 12.390625 36.3125 C11.93171875 35.879375 11.4728125 35.44625 11 35 C11.45309375 30.27607816 13.21219913 28.37862347 16.625 25.1875 C20.47532832 21.49668528 24.0714688 17.73904482 27.53125 13.68359375 C29 12 29 12 31.375 9.6875 C33.24210971 7.99077259 33.24210971 7.99077259 34 5 C30.68652652 5.93408136 27.37441322 6.87290289 24.0625 7.8125 C23.13630859 8.07353516 22.21011719 8.33457031 21.25585938 8.60351562 C16.09771684 10.06951403 11.01312531 11.62870626 5.97045898 13.45581055 C4 14 4 14 0 14 C0 9.38 0 4.76 0 0 Z " fill="#080801" transform="translate(63,132)"/>
<path d="M0 0 C2.97 0 5.94 0 9 0 C9 23.43 9 46.86 9 71 C6.03 71 3.06 71 0 71 C0 47.57 0 24.14 0 0 Z " fill="#0B0B01" transform="translate(373,101)"/>
<path d="M0 0 C2.97 0 5.94 0 9 0 C9 23.43 9 46.86 9 71 C6.03 71 3.06 71 0 71 C0 47.57 0 24.14 0 0 Z " fill="#090A01" transform="translate(355,101)"/>
<path d="M0 0 C2.34688889 2.90061128 3.857427 5.6817303 5.26171875 9.1328125 C5.65810547 10.10347656 6.05449219 11.07414062 6.46289062 12.07421875 C6.86701172 13.08097656 7.27113281 14.08773437 7.6875 15.125 C8.10322266 16.13949219 8.51894531 17.15398437 8.94726562 18.19921875 C12 25.72829433 12 25.72829433 12 28 C4.41 28 -3.18 28 -11 28 C-9.02594301 21.41981003 -7.02180036 15.22365085 -4.375 8.9375 C-4.06304687 8.18017578 -3.75109375 7.42285156 -3.4296875 6.64257812 C-1.13970094 1.13970094 -1.13970094 1.13970094 0 0 Z " fill="#E9EF29" transform="translate(207,113)"/>
</svg>
