<?xml version="1.0" encoding="UTF-8"?>
<svg version="1.1" xmlns="http://www.w3.org/2000/svg" width="600" height="315">
<path d="M0 0 C0 9.57 0 19.14 0 29 C3.96 29.33 7.92 29.66 12 30 C24.19140434 33.05769345 35.94726166 40.45339359 43 51 C51.98369785 66.61774806 56.07088969 81.63605296 51.375 99.5 C46.18808989 115.22395478 36.10497576 125.66024183 21.61328125 133.25 C14.45991787 136.6456629 7.91364839 138 0 138 C0 147.9 0 157.8 0 168 C-19.34751129 168 -37.40285885 164.1891044 -53 152 C-53 151.34 -53 150.68 -53 150 C-53.87785156 149.59007812 -53.87785156 149.59007812 -54.7734375 149.171875 C-68.86375502 141.75591841 -78.16441035 123.64900538 -83.12890625 109.27734375 C-85.45661851 101.51811953 -85.64092041 94.06962717 -85.57641602 86.03515625 C-85.56255198 83.63400223 -85.5967468 81.23676515 -85.63476562 78.8359375 C-85.7399216 57.53207612 -76.83398758 37.97450569 -61.859375 22.8359375 C-59.95937956 21.13791008 -58.02026772 19.55215691 -56 18 C-55.36578125 17.49210937 -54.7315625 16.98421875 -54.078125 16.4609375 C-52.09071246 14.91075572 -50.06513499 13.44482392 -48 12 C-47.3090625 11.50628906 -46.618125 11.01257813 -45.90625 10.50390625 C-31.39260867 0.93583791 -17.00955559 -0.71871362 0 0 Z " fill="#CD79CA" transform="translate(85,73)"/>
<path d="M0 0 C0.65742188 0.51175781 1.31484375 1.02351562 1.9921875 1.55078125 C2.94738281 2.21013672 2.94738281 2.21013672 3.921875 2.8828125 C11.75788176 8.71777891 14.45365091 18.26519629 15.9921875 27.55078125 C16.23713605 31.0567612 16.22709012 34.54157586 16.1875 38.0546875 C16.1846701 39.01857895 16.18184021 39.9824704 16.17892456 40.97557068 C16.16782598 44.02160631 16.14274114 47.06733611 16.1171875 50.11328125 C16.10714434 52.19205301 16.09802084 54.27082943 16.08984375 56.34960938 C16.06963128 61.41687619 16.0304633 66.48349076 15.9921875 71.55078125 C8.7321875 71.55078125 1.4721875 71.55078125 -6.0078125 71.55078125 C-6.5028125 68.08578125 -6.5028125 68.08578125 -7.0078125 64.55078125 C-7.7915625 65.29328125 -8.5753125 66.03578125 -9.3828125 66.80078125 C-17.93526277 73.76576976 -27.26028189 74.63466173 -38.0078125 73.55078125 C-48.91482378 71.44469595 -56.50464988 64.23999642 -63.0078125 55.55078125 C-68.86780152 45.57347968 -70.11162144 33.80158557 -68.0078125 22.55078125 C-66.97899297 19.0364967 -65.63726387 15.82631105 -64.0078125 12.55078125 C-63.50121094 11.48537109 -63.50121094 11.48537109 -62.984375 10.3984375 C-57.88278051 0.97315122 -47.15312318 -4.36606259 -37.3203125 -7.69921875 C-24.19289363 -10.51956265 -10.82370231 -7.98892314 0 0 Z M-39.80078125 19.49609375 C-43.70121223 24.51755121 -45.47814807 28.60077494 -45.42578125 35 C-44.52300127 40.50948901 -41.20508128 45.66862466 -36.9921875 49.27734375 C-32.11158632 52.40938309 -26.60064719 52.11397579 -21.0078125 51.55078125 C-15.1995375 49.59699222 -11.72662877 45.55870973 -8.7578125 40.36328125 C-7.29387214 34.87350491 -6.89922583 28.99486976 -9.5078125 23.80078125 C-12.72555523 19.0529231 -16.93403153 15.46803652 -22.46875 13.81640625 C-29.5299595 12.73006633 -34.91039263 14.19018191 -39.80078125 19.49609375 Z " fill="#1E2838" transform="translate(468.0078125,139.44921875)"/>
<path d="M0 0 C2.08930011 0.14383314 4.17827087 0.29245606 6.26708984 0.44311523 C7.4304184 0.5253685 8.59374695 0.60762177 9.79232788 0.69236755 C21.79573948 1.84355718 32.42357767 9.04953315 40.6875 17.5 C51.49545243 30.63140114 55.43141697 46.34188505 54 63 C51.58513968 76.81684286 44.70951196 89.48074993 33.359375 97.9765625 C23.67366837 104.33449842 12.92035987 109.89402699 1 109 C0 108 0 108 -0.12304783 106.19027615 C-0.12212604 105.3947688 -0.12120424 104.59926146 -0.12025452 103.77964783 C-0.12162918 102.86954453 -0.12300385 101.95944122 -0.12442017 101.02175903 C-0.12082489 100.01547455 -0.11722961 99.00919006 -0.11352539 97.97241211 C-0.11367142 96.91888046 -0.11381744 95.86534882 -0.1139679 94.77989197 C-0.11326826 91.279022 -0.10547348 87.77820448 -0.09765625 84.27734375 C-0.09579225 81.85738657 -0.09436826 79.43742901 -0.09336853 77.01747131 C-0.08954192 70.63384976 -0.07971041 64.25025079 -0.06866455 57.86663818 C-0.05845351 51.35836086 -0.05387157 44.8500799 -0.04882812 38.34179688 C-0.03808827 25.56118825 -0.02120112 12.78059533 0 0 Z " fill="#EFA4AD" transform="translate(84,102)"/>
<path d="M0 0 C0 34.98 0 69.96 0 106 C-17.6543064 106 -29.10590573 99.13865858 -41.44140625 86.95703125 C-43.19536423 84.75469303 -44.08065765 82.64825484 -45 80 C-45.66 80 -46.32 80 -47 80 C-53.91683025 63.55194236 -55.85556418 49.00746158 -49 32 C-41.93161642 17.09376323 -30.66711625 7.41558391 -15.2109375 1.7109375 C-9.91621574 0.00839446 -5.64904037 0 0 0 Z " fill="#943988" transform="translate(83,103)"/>
<path d="M0 0 C8.21649249 7.09953913 10.77120464 16.4871901 12 27 C12.12753332 30.36423094 12.11686598 33.72360555 12.09765625 37.08984375 C12.0962413 38.03436905 12.09482635 38.97889435 12.09336853 39.95204163 C12.0878036 42.94722763 12.07525767 45.94233687 12.0625 48.9375 C12.05748046 50.97721246 12.05291835 53.01692609 12.04882812 55.05664062 C12.03869967 60.03781326 12.01911753 65.01882144 12 70 C4.08 70 -3.84 70 -12 70 C-12.02578125 66.98875 -12.0515625 63.9775 -12.078125 60.875 C-12.11660362 57.93919772 -12.16174513 55.00356763 -12.20751953 52.06787109 C-12.23564035 50.03703108 -12.25689886 48.00608343 -12.27099609 45.97509766 C-12.29254898 43.04534145 -12.33926222 40.11686735 -12.390625 37.1875 C-12.39185364 36.28821777 -12.39308228 35.38893555 -12.39434814 34.46240234 C-12.54896627 27.71669325 -14.01413875 22.06897944 -18.82421875 17.125 C-23.85625786 14.08678771 -28.136794 12.83606115 -34 14 C-38.8605071 16.38439971 -41.36323298 19.31241418 -44 24 C-44.86718542 26.80677013 -45.14354782 29.37969676 -45.20532227 32.30957031 C-45.22526749 33.15013977 -45.24521271 33.99070923 -45.26576233 34.85675049 C-45.29083107 36.20383087 -45.29083107 36.20383087 -45.31640625 37.578125 C-45.33718735 38.5046991 -45.35796844 39.43127319 -45.37937927 40.38592529 C-45.44466961 43.34054272 -45.50366431 46.29524768 -45.5625 49.25 C-45.60570473 51.25521732 -45.64931965 53.26042585 -45.69335938 55.265625 C-45.80110052 60.17699499 -45.90032658 65.08843313 -46 70 C-53.92 70 -61.84 70 -70 70 C-70.06940982 63.98962353 -70.12897858 57.98067493 -70.16479492 51.97021484 C-70.17974813 49.93175507 -70.20011811 47.89332671 -70.22631836 45.85498047 C-70.63384159 13.30106617 -70.63384159 13.30106617 -62 3 C-44.38592277 -12.90673534 -18.94394072 -15.03391136 0 0 Z " fill="#1E2838" transform="translate(380,141)"/>
<path d="M0 0 C3.81248426 -0.02887236 7.6249407 -0.04675492 11.4375 -0.0625 C12.52611328 -0.07087891 13.61472656 -0.07925781 14.73632812 -0.08789062 C15.77080078 -0.09111328 16.80527344 -0.09433594 17.87109375 -0.09765625 C18.82943115 -0.10289307 19.78776855 -0.10812988 20.77514648 -0.11352539 C23 0 23 0 24 1 C24.09868576 4.05677229 24.13715113 7.09505297 24.140625 10.15234375 C24.15897188 12.06316278 24.17854389 13.97397036 24.19921875 15.88476562 C24.22804631 18.89968876 24.24999615 21.91388575 24.25048828 24.92895508 C23.69293509 40.39804623 23.69293509 40.39804623 30 54 C34.59663157 57.09388663 38.5745883 57.48246308 43.921875 56.63671875 C48.49985124 55.23406814 50.48040715 51.90928748 52.75 47.9375 C54.3689135 44.13305326 55.11620419 40.90712025 55.20532227 36.78222656 C55.22526749 35.96167786 55.24521271 35.14112915 55.26576233 34.29571533 C55.28247482 33.41953552 55.29918732 32.54335571 55.31640625 31.640625 C55.33718735 30.73624695 55.35796844 29.8318689 55.37937927 28.90008545 C55.4446594 26.01679945 55.50365952 23.1334239 55.5625 20.25 C55.60570571 18.29295956 55.64932065 16.33592812 55.69335938 14.37890625 C55.80108735 9.58602787 55.90032091 4.79307958 56 0 C63.59 0 71.18 0 79 0 C79.06920564 6.49251453 79.1288395 12.98372766 79.16479492 19.47631836 C79.17979791 21.68078978 79.20020687 23.88523178 79.22631836 26.08959961 C79.26307727 29.2746511 79.27981175 32.4593049 79.29296875 35.64453125 C79.30845261 36.61582474 79.32393646 37.58711823 79.33988953 38.58784485 C79.3426879 50.19844018 76.31207168 61.1100626 68.3359375 69.81640625 C59.06093128 78.26555575 48.24540706 80.52649409 35.94921875 80.25 C26.17447438 79.63122291 18.67395344 76.02177389 11.3125 69.6875 C2.18159093 59.07590297 -0.17194966 48.29321134 -0.09765625 34.5703125 C-0.0962413 33.57998016 -0.09482635 32.58964783 -0.09336853 31.56930542 C-0.08779252 28.42117227 -0.07524442 25.27311148 -0.0625 22.125 C-0.0574819 19.98437603 -0.05291954 17.84375094 -0.04882812 15.703125 C-0.03783094 10.46872551 -0.02111675 5.23436793 0 0 Z " fill="#1E2837" transform="translate(221,133)"/>
<path d="M0 0 C7.59 0 15.18 0 23 0 C23 37.29 23 74.58 23 113 C15.41 113 7.82 113 0 113 C0 75.71 0 38.42 0 0 Z " fill="#1D2837" transform="translate(185,98)"/>
<path d="M0 0 C7.32668827 5.17387889 11.17228385 10.51685155 14 19 C14.08494728 21.65894107 14.11594796 24.29085377 14.09765625 26.94921875 C14.0962413 27.72183548 14.09482635 28.49445221 14.09336853 29.29048157 C14.08777466 31.75619389 14.07522333 34.22181515 14.0625 36.6875 C14.05748421 38.36002473 14.05292144 40.03255088 14.04882812 41.70507812 C14.03865847 45.80344866 14.01908194 49.90162248 14 54 C8.39 54 2.78 54 -3 54 C-3.33 53.01 -3.66 52.02 -4 51 C-4.763125 51.474375 -5.52625 51.94875 -6.3125 52.4375 C-12.24123123 55.88443676 -18.31557447 55.75492964 -25 55 C-33.00761991 52.44096109 -39.05707339 48.5123128 -43 41 C-46.63547252 33.54797778 -47.41058951 25.2083305 -45.23828125 17.1875 C-41.96320176 8.48847463 -37.10173104 3.47037263 -29 -1 C-20.18443686 -4.55989998 -8.46115466 -4.71993516 0 0 Z M-23 17 C-25.49419751 19.2316504 -26.78999638 20.82140825 -27.3828125 24.1484375 C-27.58295324 28.16459492 -27.33777526 30.4330201 -25.25 33.9375 C-21.92728316 36.98332377 -20.13018796 37.85349415 -15.625 38.4375 C-10.2707831 37.79130141 -7.91642214 35.41635834 -4.5625 31.1875 C-3.65437994 27.65592199 -3.95354899 24.4402932 -5 21 C-7.54253313 17.56010224 -9.52171943 16.20870425 -13.4375 14.5 C-17.80947207 13.88638988 -19.39409737 14.51593374 -23 17 Z " fill="#1E2838" transform="translate(561,158)"/>
<path d="M0 0 C6.27 0 12.54 0 19 0 C19 18.48 19 36.96 19 56 C12.73 56 6.46 56 0 56 C0 37.52 0 19.04 0 0 Z " fill="#1D2838" transform="translate(581,156)"/>
<path d="M0 0 C2.38649841 1.84101306 3.10851384 2.91296415 4.1875 5.6875 C4.234375 7.94140625 4.234375 7.94140625 3.9375 10.25 C3.84984375 11.01441406 3.7621875 11.77882812 3.671875 12.56640625 C3.1875 14.6875 3.1875 14.6875 1.1875 17.6875 C-2.9103167 19.97745639 -7.21901653 20.46700023 -11.8125 19.6875 C-14.6225346 17.89386089 -16.32190468 16.66869065 -17.8125 13.6875 C-18.35649285 9.148281 -18.43539461 5.7330731 -16.0625 1.75 C-10.81124893 -3.06364681 -6.56529517 -3.06380441 0 0 Z " fill="#1E2838" transform="translate(510.8125,193.3125)"/>
<path d="M0 0 C1.15628906 0.10054687 1.15628906 0.10054687 2.3359375 0.203125 C5.21565241 0.8911115 6.59939578 1.56614545 8.625 3.75 C9.50826357 8.47029819 9.36469671 13.01255314 8.625 17.75 C5.48720317 21.27045498 3.67378816 21.62120145 -0.9375 22.1875 C-4.5943473 21.72208307 -6.47586998 20.98647173 -9.375 18.75 C-12.19225233 14.5241215 -12.17458384 10.71375312 -11.375 5.75 C-7.92615411 1.30280399 -5.54634724 -0.55279208 0 0 Z " fill="#1E2837" transform="translate(591.375,131.25)"/>
</svg>
