<?xml version="1.0" encoding="UTF-8"?>
<svg version="1.1" xmlns="http://www.w3.org/2000/svg" width="404" height="104">
<path d="M0 0 C133.32 0 266.64 0 404 0 C404 34.32 404 68.64 404 104 C270.68 104 137.36 104 0 104 C0 69.68 0 35.36 0 0 Z " fill="#FCFCFC" transform="translate(0,0)"/>
<path d="M0 0 C0.75040054 -0.00238678 1.50080109 -0.00477356 2.27394104 -0.00723267 C3.12499924 -0.01668915 3.97605743 -0.02614563 4.85290527 -0.03588867 C5.77374405 -0.02981598 6.69458282 -0.02374329 7.64332581 -0.01748657 C8.58781082 -0.02035675 9.53229584 -0.02322693 10.50540161 -0.02618408 C12.50523985 -0.02822786 14.50509794 -0.02267614 16.50489807 -0.01016235 C19.56907351 0.005869 22.63192629 -0.00999136 25.69606018 -0.02920532 C27.63681831 -0.0272226 29.57757561 -0.02337831 31.51832581 -0.01748657 C32.89654762 -0.02659561 32.89654762 -0.02659561 34.3026123 -0.03588867 C35.58392784 -0.02170395 35.58392784 -0.02170395 36.89112854 -0.00723267 C38.01792274 -0.0036525 38.01792274 -0.0036525 39.16748047 0 C41.79843604 0.50625794 42.63346414 1.17063583 44.14723206 3.38095093 C44.54595947 6.01954651 44.54595947 6.01954651 44.5796051 9.2293396 C44.60929634 11.03086739 44.60929634 11.03086739 44.6395874 12.86878967 C44.64597733 14.16573257 44.65236725 15.46267548 44.65895081 16.79891968 C44.67579664 18.13986358 44.69394677 19.48079169 44.71334839 20.82170105 C44.76086563 24.34797223 44.79066339 27.87417937 44.81678772 31.40066528 C44.84658486 35.00034233 44.89311799 38.59979861 44.93824768 42.1993103 C45.02429999 49.25973086 45.0916365 56.32021957 45.14723206 63.38095093 C45.80723206 63.38095093 46.46723206 63.38095093 47.14723206 63.38095093 C47.14723206 62.06095093 47.14723206 60.74095093 47.14723206 59.38095093 C47.80723206 59.38095093 48.46723206 59.38095093 49.14723206 59.38095093 C49.47723206 57.40095093 49.80723206 55.42095093 50.14723206 53.38095093 C50.80723206 53.38095093 51.46723206 53.38095093 52.14723206 53.38095093 C52.47723206 46.78095093 52.80723206 40.18095093 53.14723206 33.38095093 C52.48723206 33.38095093 51.82723206 33.38095093 51.14723206 33.38095093 C49.2794016 27.89419896 48.91139245 23.15902117 49.14723206 17.38095093 C52.63727768 19.59131315 53.98620291 21.41410133 55.14723206 25.38095093 C55.14723206 26.70095093 55.14723206 28.02095093 55.14723206 29.38095093 C55.80723206 29.38095093 56.46723206 29.38095093 57.14723206 29.38095093 C58.30900358 33.52560256 58.2941387 37.54300455 58.27223206 41.81845093 C58.27609924 42.56932983 58.27996643 43.32020874 58.28395081 44.09384155 C58.27709812 47.9895941 58.10024961 51.57644432 57.14723206 55.38095093 C56.48723206 55.38095093 55.82723206 55.38095093 55.14723206 55.38095093 C54.98867737 55.97263062 54.83012268 56.5643103 54.66676331 57.17391968 C52.16313768 65.65304955 47.36125698 69.61697221 40.14723206 74.38095093 C39.48723206 74.38095093 38.82723206 74.38095093 38.14723206 74.38095093 C38.14723206 75.04095093 38.14723206 75.70095093 38.14723206 76.38095093 C35.17723206 76.87595093 35.17723206 76.87595093 32.14723206 77.38095093 C32.14723206 78.04095093 32.14723206 78.70095093 32.14723206 79.38095093 C29.36999281 80.16783538 26.92113129 80.50045016 24.03785706 80.47860718 C23.28375549 80.47538452 22.52965393 80.47216187 21.75270081 80.46884155 C20.97539612 80.46046265 20.19809143 80.45208374 19.39723206 80.44345093 C18.60445862 80.43893921 17.81168518 80.43442749 16.99488831 80.42977905 C15.04563697 80.41803657 13.09642467 80.40010238 11.14723206 80.38095093 C11.14723206 79.72095093 11.14723206 79.06095093 11.14723206 78.38095093 C10.18623596 78.25140015 10.18623596 78.25140015 9.20582581 78.11923218 C-0.31985296 76.57184174 -4.9622265 72.74412774 -10.85276794 65.38095093 C-11.84276794 64.72095093 -12.83276794 64.06095093 -13.85276794 63.38095093 C-14.54026794 60.25595093 -14.54026794 60.25595093 -14.85276794 57.38095093 C-15.51276794 57.38095093 -16.17276794 57.38095093 -16.85276794 57.38095093 C-19.76510541 48.27989636 -19.62816866 38.72666031 -17.85276794 29.38095093 C-17.19276794 29.38095093 -16.53276794 29.38095093 -15.85276794 29.38095093 C-15.63620544 27.95782593 -15.63620544 27.95782593 -15.41526794 26.50595093 C-14.85276794 23.38095093 -14.85276794 23.38095093 -13.85276794 21.38095093 C-13.19276794 21.38095093 -12.53276794 21.38095093 -11.85276794 21.38095093 C-11.60526794 20.63845093 -11.35776794 19.89595093 -11.10276794 19.13095093 C-9.74811755 16.15072006 -8.34261385 14.48175841 -5.85276794 12.38095093 C-5.19276794 12.38095093 -4.53276794 12.38095093 -3.85276794 12.38095093 C-3.87597107 11.76606812 -3.89917419 11.1511853 -3.92308044 10.51766968 C-3.95015076 9.3053064 -3.95015076 9.3053064 -3.97776794 8.06845093 C-4.00097107 7.26794312 -4.02417419 6.4674353 -4.04808044 5.64266968 C-3.79258278 2.68400671 -3.12013297 0.64153612 0 0 Z " fill="#18181A" transform="translate(46.85276794433594,11.619049072265625)"/>
<path d="M0 0 C12.87 0 25.74 0 39 0 C39 9.9 39 19.8 39 30 C34 29 34 29 31.61450195 26.97558594 C28.29319977 24.4659233 26.29594472 24.46336466 22.16796875 24.390625 C20.87568359 24.35839844 19.58339844 24.32617188 18.25195312 24.29296875 C16.89713991 24.2782265 15.54232202 24.26390888 14.1875 24.25 C12.81311361 24.22182241 11.43876195 24.19189246 10.06445312 24.16015625 C6.70995398 24.08953522 3.35497333 24.04249491 0 24 C0 16.08 0 8.16 0 0 Z " fill="#ECECEC" transform="translate(48,17)"/>
<path d="M0 0 C0.66 0 1.32 0 2 0 C2.01458252 1.1960083 2.02916504 2.3920166 2.04418945 3.62426758 C2.10212586 8.05816675 2.17935874 12.49155558 2.26245117 16.92504883 C2.2957225 18.84456098 2.32374754 20.76417148 2.34643555 22.68383789 C2.37994121 25.44199572 2.43225403 28.19925043 2.48828125 30.95703125 C2.49467117 31.81649857 2.5010611 32.67596588 2.50764465 33.56147766 C2.53733589 34.76238289 2.53733589 34.76238289 2.56762695 35.98754883 C2.57873001 36.6914827 2.58983307 37.39541656 2.60127258 38.12068176 C3.12210408 40.57551201 4.03199165 41.48182317 6 43 C8.88708564 43.42571923 8.88708564 43.42571923 12.171875 43.3359375 C14.00492188 43.35527344 14.00492188 43.35527344 15.875 43.375 C18.44272022 43.375 21.0104529 43.36728294 23.578125 43.3515625 C31.0656267 43.44594277 35.45968644 43.77485398 41 49 C40.67 50.32 40.34 51.64 40 53 C36.535 53.495 36.535 53.495 33 54 C33 54.66 33 55.32 33 56 C27.72 56 22.44 56 17 56 C17 55.34 17 54.68 17 54 C16.071875 53.855625 15.14375 53.71125 14.1875 53.5625 C11 53 11 53 8 52 C8 51.34 8 50.68 8 50 C7.443125 49.95875 6.88625 49.9175 6.3125 49.875 C2.80671632 48.54848726 1.26880984 45.90873056 -1 43 C-1.5775 42.505 -2.155 42.01 -2.75 41.5 C-4.63980136 39.23223837 -4.68129374 36.86835633 -5 34 C-5.66 34 -6.32 34 -7 34 C-8.05619003 29.71702469 -8.11702092 25.57014354 -8.0625 21.1875 C-8.05798828 20.49462891 -8.05347656 19.80175781 -8.04882812 19.08789062 C-8.03713156 17.39188932 -8.01919924 15.69593297 -8 14 C-7.34 14 -6.68 14 -6 14 C-5.896875 12.906875 -5.79375 11.81375 -5.6875 10.6875 C-4.988068 6.93600108 -4.74005005 6.30164205 -2 4 C-0.82425289 1.90010348 -0.82425289 1.90010348 0 0 Z " fill="#ECECEC" transform="translate(41,31)"/>
<path d="M0 0 C1.98 0 3.96 0 6 0 C6 3.63 6 7.26 6 11 C7.32 10.01 8.64 9.02 10 8 C13.07832322 7.33917927 15.91148541 7.39991428 19 8 C22.28175318 10.52968474 23.69243777 12.07731331 25 16 C25.39764448 21.9646672 24.84887651 25.72430277 22 31 C18.72872414 33.18085057 17.72623277 33.24887859 13.9375 33.1875 C13.05964844 33.18105469 12.18179687 33.17460938 11.27734375 33.16796875 C9 33 9 33 7 32 C7 32.66 7 33.32 7 34 C4.69 34 2.38 34 0 34 C0 22.78 0 11.56 0 0 Z " fill="#323233" transform="translate(306,36)"/>
<path d="M0 0 C3.1301662 2.12404135 4.53598067 3.545442 5.75 7.1875 C5.818991 9.24895107 5.83467727 11.31251401 5.8125 13.375 C5.80347656 14.46167969 5.79445313 15.54835938 5.78515625 16.66796875 C5.77355469 17.49941406 5.76195312 18.33085938 5.75 19.1875 C5.09 19.1875 4.43 19.1875 3.75 19.1875 C3.316875 20.3940625 3.316875 20.3940625 2.875 21.625 C1.75 24.1875 1.75 24.1875 -0.25 25.1875 C-2.20339423 25.36119832 -4.16442704 25.45446102 -6.125 25.5 C-7.17429687 25.53738281 -8.22359375 25.57476562 -9.3046875 25.61328125 C-12.97065453 25.0833205 -13.99863721 24.06985012 -16.25 21.1875 C-18.19344382 18.13703122 -18.52191207 15.78108 -18.5 12.1875 C-18.50515625 11.341875 -18.5103125 10.49625 -18.515625 9.625 C-18.23531155 7.05271189 -17.5448187 5.4071892 -16.25 3.1875 C-15.59 3.1875 -14.93 3.1875 -14.25 3.1875 C-14.25 2.5275 -14.25 1.8675 -14.25 1.1875 C-9.55237805 -1.09013488 -5.00485635 -1.80730924 0 0 Z " fill="#202021" transform="translate(352.25,43.8125)"/>
<path d="M0 0 C1.9375 1.5625 1.9375 1.5625 3 3 C3.39316406 2.5153125 3.78632813 2.030625 4.19140625 1.53125 C6.52961197 -0.44839718 7.90337144 -0.46349921 10.9375 -0.5 C11.79214844 -0.5309375 12.64679688 -0.561875 13.52734375 -0.59375 C16 0 16 0 18.30078125 1.85546875 C20.80137902 6.48301175 20.43044878 10.64541855 20.25 15.8125 C20.23195312 16.79154297 20.21390625 17.77058594 20.1953125 18.77929688 C20.14832887 21.18720771 20.08265694 23.59309335 20 26 C18.02 26 16.04 26 14 26 C13.97494385 25.39937744 13.9498877 24.79875488 13.92407227 24.17993164 C13.8084472 21.47388563 13.68557064 18.76821717 13.5625 16.0625 C13.52318359 15.11697266 13.48386719 14.17144531 13.44335938 13.19726562 C13.40146484 12.29814453 13.35957031 11.39902344 13.31640625 10.47265625 C13.27974854 9.64000244 13.24309082 8.80734863 13.20532227 7.94946289 C13.20632897 5.99661142 13.20632897 5.99661142 12 5 C9.54190002 4.7499227 9.54190002 4.7499227 7 5 C4.64641749 7.35358251 4.72128096 7.92968394 4.5859375 11.1328125 C4.54726562 11.93847656 4.50859375 12.74414062 4.46875 13.57421875 C4.42234375 14.83685547 4.42234375 14.83685547 4.375 16.125 C4.33632812 16.97449219 4.29765625 17.82398437 4.2578125 18.69921875 C4.16343506 20.79911684 4.08062414 22.89952891 4 25 C2.35 25 0.7 25 -1 25 C-1.33 18.07 -1.66 11.14 -2 4 C-4.31 4 -6.62 4 -9 4 C-11.61537297 7.95495425 -11.44264274 12.16827373 -11.625 16.75 C-11.66367188 17.54277344 -11.70234375 18.33554687 -11.7421875 19.15234375 C-11.836108 21.10119416 -11.91912822 23.05056451 -12 25 C-13.65 25 -15.3 25 -17 25 C-17 16.75 -17 8.5 -17 0 C-15.35 0 -13.7 0 -12 0 C-11.67 0.66 -11.34 1.32 -11 2 C-10.484375 1.484375 -9.96875 0.96875 -9.4375 0.4375 C-5.95573432 -1.61584899 -3.8368404 -0.97665028 0 0 Z " fill="#101011" transform="translate(133,44)"/>
<path d="M0 0 C2.99452434 2.24589325 3.81623122 3.44869367 5 7 C5 9.31 5 11.62 5 14 C-0.94 14 -6.88 14 -13 14 C-12.01 15.98 -11.02 17.96 -10 20 C-5.9899066 20.17864631 -5.9899066 20.17864631 -2 20 C-1.34 19.34 -0.68 18.68 0 18 C2.625 17.875 2.625 17.875 5 18 C3.70268494 20.89401051 2.62285333 23.16400267 0 25 C-6.10000516 26.42333454 -9.55283534 26.11266552 -15 23 C-15.33 22.01 -15.66 21.02 -16 20 C-16.66 20 -17.32 20 -18 20 C-19.46124534 15.43360832 -20.06201901 9.41861215 -18 5 C-12.0098689 -0.59947038 -7.8603235 -1.86202962 0 0 Z " fill="#171719" transform="translate(237,44)"/>
<path d="M0 0 C0.76183594 0.05542969 1.52367187 0.11085937 2.30859375 0.16796875 C5.59433508 1.10756549 6.65560174 1.92417329 8.5625 4.8125 C9.05158978 8.40820853 8.93782869 11.94242893 8.8125 15.5625 C8.79445312 16.54605469 8.77640625 17.52960937 8.7578125 18.54296875 C8.71074126 20.96713783 8.64500742 23.38932059 8.5625 25.8125 C6.9125 25.8125 5.2625 25.8125 3.5625 25.8125 C3.5625 25.1525 3.5625 24.4925 3.5625 23.8125 C3.2325 24.286875 2.9025 24.76125 2.5625 25.25 C-0.42785536 27.58621512 -3.69817974 27.78234419 -7.4375 27.8125 C-10.4375 26.8125 -10.4375 26.8125 -12.4375 23.8125 C-12.7734375 21.65625 -12.7734375 21.65625 -12.8125 19.3125 C-12.84085938 18.5390625 -12.86921875 17.765625 -12.8984375 16.96875 C-12.4375 14.8125 -12.4375 14.8125 -10.8046875 13.04296875 C-7.76329014 11.46204438 -5.59687152 11.51382484 -2.1875 11.625 C-0.57101563 11.66560547 -0.57101563 11.66560547 1.078125 11.70703125 C1.89796875 11.74183594 2.7178125 11.77664062 3.5625 11.8125 C3.5625 9.8325 3.5625 7.8525 3.5625 5.8125 C2.10507537 5.73153197 0.64637193 5.67332226 -0.8125 5.625 C-2.03066406 5.57279297 -2.03066406 5.57279297 -3.2734375 5.51953125 C-3.98757812 5.61621094 -4.70171875 5.71289062 -5.4375 5.8125 C-6.4275 7.2975 -6.4275 7.2975 -7.4375 8.8125 C-10.0625 9 -10.0625 9 -12.4375 8.8125 C-12.1030974 5.71927596 -11.8779882 4.22362232 -9.5625 2.0625 C-6.22071819 0.09674599 -3.78945884 -0.33868688 0 0 Z " fill="#0E0E10" transform="translate(168.4375,43.1875)"/>
<path d="M0 0 C4.39570794 -0.0872253 8.79119271 -0.14046869 13.1875 -0.1875 C14.43337891 -0.21263672 15.67925781 -0.23777344 16.96289062 -0.26367188 C18.16494141 -0.27333984 19.36699219 -0.28300781 20.60546875 -0.29296875 C21.71043701 -0.3086792 22.81540527 -0.32438965 23.95385742 -0.34057617 C27.38865356 0.04345369 29.24290535 0.95186365 32 3 C32.495 3.99 32.495 3.99 33 5 C36.02934491 5.65772428 36.02934491 5.65772428 39 6 C39 9.3 39 12.6 39 16 C38.01 16.33 37.02 16.66 36 17 C36 16.34 36 15.68 36 15 C33.525 14.01 33.525 14.01 31 13 C31 12.34 31 11.68 31 11 C20.77 10.67 10.54 10.34 0 10 C0 6.7 0 3.4 0 0 Z " fill="#F4F4F4" transform="translate(48,46)"/>
<path d="M0 0 C1.65 0 3.3 0 5 0 C5 0.66 5 1.32 5 2 C5.99 1.34 6.98 0.68 8 0 C10.375 -0.30078125 10.375 -0.30078125 13 -0.3125 C13.86625 -0.32925781 14.7325 -0.34601562 15.625 -0.36328125 C18.45006192 0.06884171 19.2697724 0.77773893 21 3 C22.2263757 5.45275141 22.11415314 7.0505781 22.09765625 9.7890625 C22.09443359 10.73007812 22.09121094 11.67109375 22.08789062 12.640625 C22.07951172 13.62546875 22.07113281 14.6103125 22.0625 15.625 C22.05798828 16.61757813 22.05347656 17.61015625 22.04882812 18.6328125 C22.03702145 21.0886016 22.020554 23.54427104 22 26 C20.02 26 18.04 26 16 26 C15.93941406 24.81921875 15.87882812 23.6384375 15.81640625 22.421875 C15.73197418 20.8645723 15.64732751 19.30728121 15.5625 17.75 C15.52318359 16.97269531 15.48386719 16.19539063 15.44335938 15.39453125 C15.38051758 14.26337891 15.38051758 14.26337891 15.31640625 13.109375 C15.27974854 12.41811523 15.24309082 11.72685547 15.20532227 11.01464844 C14.99324476 8.93371671 14.55491323 7.01427578 14 5 C11.08347826 4.83318891 11.08347826 4.83318891 8 5 C5.64641749 7.35358251 5.72128096 7.92968394 5.5859375 11.1328125 C5.54726563 11.93847656 5.50859375 12.74414062 5.46875 13.57421875 C5.4378125 14.41597656 5.406875 15.25773437 5.375 16.125 C5.33632813 16.97449219 5.29765625 17.82398437 5.2578125 18.69921875 C5.16343506 20.79911684 5.08062414 22.89952891 5 25 C3.35 25 1.7 25 0 25 C0 16.75 0 8.5 0 0 Z " fill="#2D2D2E" transform="translate(281,44)"/>
<path d="M0 0 C1.16015625 0.11794922 1.16015625 0.11794922 2.34375 0.23828125 C4.5 0.6875 4.5 0.6875 7.5 2.6875 C8.1875 5.3125 8.1875 5.3125 8.5 7.6875 C6.52 7.6875 4.54 7.6875 2.5 7.6875 C2.17 7.0275 1.84 6.3675 1.5 5.6875 C-0.82156597 5.28020772 -3.1568787 4.94311323 -5.5 4.6875 C-5.5 6.6675 -5.5 8.6475 -5.5 10.6875 C-4.90832031 10.71328125 -4.31664062 10.7390625 -3.70703125 10.765625 C0.27087084 11.05115141 3.02548371 11.42603184 6.5625 13.375 C8.5 15.6875 8.5 15.6875 9.0625 18.6875 C8.5 21.6875 8.5 21.6875 7 24 C2.34328106 27.14328528 -2.04317982 26.8989739 -7.375 26.125 C-10.5 24.6875 -10.5 24.6875 -11.9375 21.5625 C-12.123125 20.61375 -12.30875 19.665 -12.5 18.6875 C-10.1875 18.5 -10.1875 18.5 -7.5 18.6875 C-7.04625 19.203125 -6.5925 19.71875 -6.125 20.25 C-5.58875 20.724375 -5.0525 21.19875 -4.5 21.6875 C-0.85458155 21.45272801 -0.85458155 21.45272801 2.5 20.6875 C2.83 19.3675 3.16 18.0475 3.5 16.6875 C0.2 16.3575 -3.1 16.0275 -6.5 15.6875 C-6.5 15.0275 -6.5 14.3675 -6.5 13.6875 C-8.975 12.6975 -8.975 12.6975 -11.5 11.6875 C-11.84730339 6.39112331 -11.84730339 6.39112331 -11.5 3.6875 C-8.18959835 0.14879479 -4.68062353 -0.52266963 0 0 Z " fill="#1C1C1E" transform="translate(192.5,43.3125)"/>
<path d="M0 0 C4.45831982 -0.02891546 8.91661569 -0.04676981 13.375 -0.0625 C14.64601563 -0.07087891 15.91703125 -0.07925781 17.2265625 -0.08789062 C19.04414062 -0.09272461 19.04414062 -0.09272461 20.8984375 -0.09765625 C22.57945557 -0.10551147 22.57945557 -0.10551147 24.29443359 -0.11352539 C27 0 27 0 29 1 C29 1.66 29 2.32 29 3 C30.32 3.33 31.64 3.66 33 4 C33 4.66 33 5.32 33 6 C35.475 6.495 35.475 6.495 38 7 C38 9.64 38 12.28 38 15 C34.4124787 13.66749209 31.1635377 12.169283 28 10 C28 9.34 28 8.68 28 8 C18.76 8 9.52 8 0 8 C0 5.36 0 2.72 0 0 Z " fill="#F7F7F7" transform="translate(48,61)"/>
<path d="M0 0 C2.75 -0.375 2.75 -0.375 6 0 C10 4.84210526 10 4.84210526 10 8 C10.66 8 11.32 8 12 8 C12 7.01 12 6.02 12 5 C12.66 5 13.32 5 14 5 C14.66 3.35 15.32 1.7 16 0 C17.65 0 19.3 0 21 0 C19.8806512 3.0782092 18.5551805 5.7442734 16.8125 8.5 C14.71834321 11.78177403 14.71834321 11.78177403 15.25 14.9375 C15.4975 15.618125 15.745 16.29875 16 17 C16.66 17 17.32 17 18 17 C18.99 19.64 19.98 22.28 21 25 C18.75 25.3125 18.75 25.3125 16 25 C13.89342308 22.77639103 12.36738566 20.73477132 11 18 C10.01 18.33 9.02 18.66 8 19 C7.26676204 21.01508358 7.26676204 21.01508358 7 23 C6.34 23 5.68 23 5 23 C5 23.66 5 24.32 5 25 C3.35 25 1.7 25 0 25 C2.7 19.34285714 2.7 19.34285714 4.75 17 C6.248437 14.99558334 6.248437 14.99558334 6 12.1875 C4.89238845 8.65698817 3.33899058 6.38388617 1.05859375 3.515625 C0 2 0 2 0 0 Z " fill="#1F1F21" transform="translate(359,44)"/>
<path d="M0 0 C1.65 0 3.3 0 5 0 C5 1.98 5 3.96 5 6 C6.65 6 8.3 6 10 6 C10 7.32 10 8.64 10 10 C8.35 10 6.7 10 5 10 C5.33 15.28 5.66 20.56 6 26 C7.32 26.33 8.64 26.66 10 27 C10 28.65 10 30.3 10 32 C7.36 32 4.72 32 2 32 C2 31.34 2 30.68 2 30 C1.34 30 0.68 30 0 30 C-0.90238747 27.29283758 -1.11851302 25.76223232 -1.09765625 22.98828125 C-1.09282227 21.85229492 -1.09282227 21.85229492 -1.08789062 20.69335938 C-1.07951172 19.90767578 -1.07113281 19.12199219 -1.0625 18.3125 C-1.05798828 17.51521484 -1.05347656 16.71792969 -1.04882812 15.89648438 C-1.0370585 13.93095743 -1.01912348 11.96546915 -1 10 C-1.99 10 -2.98 10 -4 10 C-4 8.68 -4 7.36 -4 6 C-2.68 6 -1.36 6 0 6 C0 4.02 0 2.04 0 0 Z " fill="#272729" transform="translate(207,38)"/>
<path d="M0 0 C-0.33 0.33 -0.66 0.66 -1 1 C1.97 1.33 4.94 1.66 8 2 C7.67 4.31 7.34 6.62 7 9 C7.66 9 8.32 9 9 9 C9 9.66 9 10.32 9 11 C8.01 11.33 7.02 11.66 6 12 C5.67 12.66 5.34 13.32 5 14 C-2.17894737 15.27368421 -2.17894737 15.27368421 -6 14 C-8.66357917 10.00463124 -8.71599604 6.69763258 -8 2 C-5.4462993 -1.10092228 -3.69521588 -1.45169195 0 0 Z " fill="#121214" transform="translate(164,56)"/>
<path d="M0 0 C2.30199257 1.63520852 2.92122452 2.53738716 3.3984375 5.33984375 C3.39070313 6.19707031 3.38296875 7.05429687 3.375 7.9375 C3.38273437 8.79214844 3.39046875 9.64679687 3.3984375 10.52734375 C2.92265074 13.48002043 2.06957854 14.86224711 0 17 C-3.54177048 17.60285455 -5.29288388 17.42799134 -8.375 15.5625 C-10.75168245 11.8146546 -10.48626489 8.32855468 -10 4 C-9.67 3.01 -9.34 2.02 -9 1 C-5.95016004 -0.52491998 -3.3576631 -0.23562548 0 0 Z " fill="#F1F1F1" transform="translate(350,48)"/>
<path d="M0 0 C1.8125 1 1.8125 1 3 3 C3.91847153 6.89729813 4.72890167 11.25404639 3 15 C-0.46923881 17.31282587 -1.92205575 17.42478586 -6 17 C-7.8125 15.9375 -7.8125 15.9375 -9 14 C-10.21491702 9.04687677 -10.10865598 5.66123953 -8 1 C-5.20129973 -0.39935013 -3.09501208 -0.25265405 0 0 Z " fill="#EFEFEF" transform="translate(322,48)"/>
<path d="M0 0 C4.66666667 0 9.33333333 0 14 0 C14 1.32 14 2.64 14 4 C11.69 4.33 9.38 4.66 7 5 C6.67 11.93 6.34 18.86 6 26 C4.02 26 2.04 26 0 26 C0 17.42 0 8.84 0 0 Z " fill="#2A2A2B" transform="translate(246,44)"/>
<path d="M0 0 C1.65 0 3.3 0 5 0 C5 0.66 5 1.32 5 2 C5.99 1.34 6.98 0.68 8 0 C10.41015625 -0.23046875 10.41015625 -0.23046875 13.0625 -0.1875 C14.37927734 -0.17783203 14.37927734 -0.17783203 15.72265625 -0.16796875 C18 0 18 0 20 1 C19.67 1.66 19.34 2.32 19 3 C18.34 2.67 17.68 2.34 17 2 C14.6670134 1.95977609 12.33293334 1.95679753 10 2 C11.32 2.66 12.64 3.32 14 4 C12.865625 4.309375 11.73125 4.61875 10.5625 4.9375 C7.21224901 5.62924531 7.21224901 5.62924531 6 7 C5.84417697 8.34015221 5.74955858 9.68758903 5.68359375 11.03515625 C5.64169922 11.84404297 5.59980469 12.65292969 5.55664062 13.48632812 C5.51732422 14.33646484 5.47800781 15.18660156 5.4375 16.0625 C5.39431641 16.91650391 5.35113281 17.77050781 5.30664062 18.65039062 C5.20023298 20.76672037 5.09958269 22.88333813 5 25 C3.35 25 1.7 25 0 25 C0 16.75 0 8.5 0 0 Z " fill="#121214" transform="translate(281,44)"/>
<path d="M0 0 C8.81415929 -0.29380531 8.81415929 -0.29380531 12 2 C13.2263757 4.45275141 13.11415314 6.0505781 13.09765625 8.7890625 C13.09443359 9.73007812 13.09121094 10.67109375 13.08789062 11.640625 C13.07951172 12.62546875 13.07113281 13.6103125 13.0625 14.625 C13.05798828 15.61757813 13.05347656 16.61015625 13.04882812 17.6328125 C13.03702145 20.0886016 13.020554 22.54427104 13 25 C11.02 25 9.04 25 7 25 C6.97494385 24.40985107 6.9498877 23.81970215 6.92407227 23.21166992 C6.80799948 20.53673186 6.68532428 17.8621362 6.5625 15.1875 C6.52318359 14.25873047 6.48386719 13.32996094 6.44335938 12.37304688 C6.38051758 11.0340332 6.38051758 11.0340332 6.31640625 9.66796875 C6.27974854 8.84578857 6.24309082 8.0236084 6.20532227 7.17651367 C6.06572228 4.82094822 6.06572228 4.82094822 5 2 C3.02 2 1.04 2 -1 2 C-0.67 1.34 -0.34 0.68 0 0 Z " fill="#29292A" transform="translate(140,45)"/>
<path d="M0 0 C1.98 0 3.96 0 6 0 C6 8.58 6 17.16 6 26 C4.02 26 2.04 26 0 26 C0 17.42 0 8.84 0 0 Z " fill="#5B5B5C" transform="translate(271,44)"/>
<path d="M0 0 C0.66 0.66 1.32 1.32 2 2 C2.66 1.67 3.32 1.34 4 1 C4.0825 1.94875 4.165 2.8975 4.25 3.875 C4.65074923 7.10461791 4.65074923 7.10461791 7.0625 8.375 C7.701875 8.58125 8.34125 8.7875 9 9 C9 9.66 9 10.32 9 11 C10.093125 10.979375 11.18625 10.95875 12.3125 10.9375 C16 11 16 11 19 12 C18.67 13.65 18.34 15.3 18 17 C14.6875 17.6875 14.6875 17.6875 11 18 C9.375 16.625 9.375 16.625 8 15 C5.39388923 14.27802838 5.39388923 14.27802838 3 14 C2.34 16.31 1.68 18.62 1 21 C0.67 21 0.34 21 0 21 C0 14.07 0 7.14 0 0 Z " fill="#E6E6E7" transform="translate(177,48)"/>
<path d="M0 0 C4.45831982 -0.02891546 8.91661569 -0.04676981 13.375 -0.0625 C14.64601563 -0.07087891 15.91703125 -0.07925781 17.2265625 -0.08789062 C19.04414062 -0.09272461 19.04414062 -0.09272461 20.8984375 -0.09765625 C22.57945557 -0.10551147 22.57945557 -0.10551147 24.29443359 -0.11352539 C27 0 27 0 29 1 C29 1.66 29 2.32 29 3 C30.32 3.33 31.64 3.66 33 4 C33 4.66 33 5.32 33 6 C35.475 6.495 35.475 6.495 38 7 C38 9.64 38 12.28 38 15 C35.5625 14.3125 35.5625 14.3125 33 13 C32.855625 12.21625 32.71125 11.4325 32.5625 10.625 C32.21573132 7.812822 32.21573132 7.812822 29.80078125 5.8828125 C24.70660281 2.67713012 18.43813425 3.31927896 12.625 3.25 C11.41199219 3.22035156 10.19898438 3.19070312 8.94921875 3.16015625 C5.96607979 3.0896884 2.98371205 3.0368752 0 3 C0 2.01 0 1.02 0 0 Z " fill="#C5C5C6" transform="translate(48,61)"/>
<path d="M0 0 C6.75 -0.125 6.75 -0.125 9 1 C9 2.98 9 4.96 9 7 C7.75283203 7.07347656 7.75283203 7.07347656 6.48046875 7.1484375 C5.39378906 7.22320312 4.30710938 7.29796875 3.1875 7.375 C2.10855469 7.44460937 1.02960938 7.51421875 -0.08203125 7.5859375 C-3.18626186 7.81195733 -3.18626186 7.81195733 -6 10 C-6.25431832 12.00275675 -6.50327623 14.01053267 -6.59375 16.02734375 C-7 18 -7 18 -10 21 C-10 14.4 -10 7.8 -10 1 C-9.01 1 -8.02 1 -7 1 C-7 1.99 -7 2.98 -7 4 C-5.35 4 -3.7 4 -2 4 C-1.34 2.68 -0.68 1.36 0 0 Z " fill="#D6D6D6" transform="translate(163,48)"/>
<path d="M0 0 C0.99 0 1.98 0 3 0 C3 3.96 3 7.92 3 12 C3.99 12 4.98 12 6 12 C5.7525 13.175625 5.7525 13.175625 5.5 14.375 C4.87039153 18.93966142 4.91819473 23.40072601 5 28 C4.34 28 3.68 28 3 28 C3 29.32 3 30.64 3 32 C2.01 32 1.02 32 0 32 C0 21.44 0 10.88 0 0 Z " fill="#0C0C0E" transform="translate(308,37)"/>
<path d="M0 0 C3.57231861 2.38154574 5.46083052 5.04919063 7 9 C6.93621564 12.31678647 6.77660303 14.12210092 4.5625 16.625 C3.7890625 17.305625 3.7890625 17.305625 3 18 C1.82425289 20.09989652 1.82425289 20.09989652 1 22 C0.34 21.34 -0.32 20.68 -1 20 C-1.99 20.33 -2.98 20.66 -4 21 C-3.67 19.68 -3.34 18.36 -3 17 C-2.34 17 -1.68 17 -1 17 C-1.33 12.38 -1.66 7.76 -2 3 C-1.34 2.67 -0.68 2.34 0 2 C0 1.34 0 0.68 0 0 Z " fill="#DCDCDC" transform="translate(359,46)"/>
<path d="M0 0 C4.39570794 -0.0872253 8.79119271 -0.14046869 13.1875 -0.1875 C14.43337891 -0.21263672 15.67925781 -0.23777344 16.96289062 -0.26367188 C18.16494141 -0.27333984 19.36699219 -0.28300781 20.60546875 -0.29296875 C21.71043701 -0.3086792 22.81540527 -0.32438965 23.95385742 -0.34057617 C27.38865356 0.04345369 29.24290535 0.95186365 32 3 C32.495 3.99 32.495 3.99 33 5 C36.02934491 5.65772428 36.02934491 5.65772428 39 6 C39 9.3 39 12.6 39 16 C38.01 16 37.02 16 36 16 C36 14.02 36 12.04 36 10 C35.37351563 9.66226563 34.74703125 9.32453125 34.1015625 8.9765625 C33.28429687 8.53054687 32.46703125 8.08453125 31.625 7.625 C30.81289062 7.18414062 30.00078125 6.74328125 29.1640625 6.2890625 C27 5 27 5 25 3 C22.3817233 2.62826984 22.3817233 2.62826984 19.3359375 2.5859375 C18.21445313 2.54726563 17.09296875 2.50859375 15.9375 2.46875 C14.761875 2.4378125 13.58625 2.406875 12.375 2.375 C10.59996094 2.31699219 10.59996094 2.31699219 8.7890625 2.2578125 C5.85953309 2.16331155 2.93001403 2.07775442 0 2 C0 1.34 0 0.68 0 0 Z " fill="#BDBDBD" transform="translate(48,46)"/>
<path d="M0 0 C3.5625 0.3125 3.5625 0.3125 5.5 1.5625 C6.5625 3.3125 6.5625 3.3125 6.5625 7.3125 C2.2725 7.3125 -2.0175 7.3125 -6.4375 7.3125 C-5.06712963 0.46064815 -5.06712963 0.46064815 0 0 Z " fill="#B3B3B3" transform="translate(230.4375,47.6875)"/>
<path d="M0 0 C1.16015625 0.11794922 1.16015625 0.11794922 2.34375 0.23828125 C4.5 0.6875 4.5 0.6875 7.5 2.6875 C8.1875 5.3125 8.1875 5.3125 8.5 7.6875 C6.52 7.6875 4.54 7.6875 2.5 7.6875 C2.17 7.0275 1.84 6.3675 1.5 5.6875 C-0.82156597 5.28020772 -3.1568787 4.94311323 -5.5 4.6875 C-5.5 6.3375 -5.5 7.9875 -5.5 9.6875 C-5.83 9.6875 -6.16 9.6875 -6.5 9.6875 C-6.479375 8.57375 -6.45875 7.46 -6.4375 6.3125 C-6.23619282 2.85534079 -6.23619282 2.85534079 -7.5 0.6875 C-4.49032056 -0.31572648 -3.0759723 -0.34348357 0 0 Z " fill="#28282A" transform="translate(192.5,43.3125)"/>
<path d="M0 0 C0.79664063 0.07863281 1.59328125 0.15726563 2.4140625 0.23828125 C3.38472656 0.46064453 3.38472656 0.46064453 4.375 0.6875 C4.705 1.3475 5.035 2.0075 5.375 2.6875 C1.745 2.6875 -1.885 2.6875 -5.625 2.6875 C-3.315 3.0175 -1.005 3.3475 1.375 3.6875 C1.375 4.0175 1.375 4.3475 1.375 4.6875 C0.281875 4.790625 -0.81125 4.89375 -1.9375 5 C-5.48059629 5.66057727 -6.55743723 5.8902092 -8.625 8.6875 C-8.955 8.0275 -9.285 7.3675 -9.625 6.6875 C-10.615 7.0175 -11.605 7.3475 -12.625 7.6875 C-12.625 11.9775 -12.625 16.2675 -12.625 20.6875 C-15.00653185 15.9244363 -14.80547631 12.75559722 -14.5 7.5625 C-13.01698703 4.38461506 -10.39153382 2.73473503 -7.625 0.6875 C-4.59335415 -0.32304862 -3.10749249 -0.3390912 0 0 Z " fill="#484849" transform="translate(232.625,43.3125)"/>
<path d="M0 0 C0.99 0 1.98 0 3 0 C3 7.92 3 15.84 3 24 C2.01 24 1.02 24 0 24 C0 16.08 0 8.16 0 0 Z " fill="#050507" transform="translate(272,45)"/>
<path d="M0 0 C2.31 0 4.62 0 7 0 C7.33 0.99 7.66 1.98 8 3 C9.98 3 11.96 3 14 3 C13.67 3.66 13.34 4.32 13 5 C12.01 5 11.02 5 10 5 C10.33 5.99 10.66 6.98 11 8 C9.54119891 7.85892253 8.08296449 7.71197585 6.625 7.5625 C5.40683594 7.44068359 5.40683594 7.44068359 4.1640625 7.31640625 C2 7 2 7 0 6 C0 4.02 0 2.04 0 0 Z " fill="#E3E3E3" transform="translate(187,48)"/>
<path d="M0 0 C3.3 0 6.6 0 10 0 C10 1.65 10 3.3 10 5 C6.3558226 7.4294516 4.28758728 7.16179575 0 7 C-1.125 2.25 -1.125 2.25 0 0 Z " fill="#E0E0E0" transform="translate(162,58)"/>
<path d="M0 0 C0.79664063 0.07863281 1.59328125 0.15726563 2.4140625 0.23828125 C3.38472656 0.46064453 3.38472656 0.46064453 4.375 0.6875 C4.705 1.3475 5.035 2.0075 5.375 2.6875 C1.745 2.6875 -1.885 2.6875 -5.625 2.6875 C-3.315 3.0175 -1.005 3.3475 1.375 3.6875 C1.375 4.0175 1.375 4.3475 1.375 4.6875 C0.26125 4.790625 -0.8525 4.89375 -2 5 C-3.19625 5.226875 -4.3925 5.45375 -5.625 5.6875 C-6.615 7.1725 -6.615 7.1725 -7.625 8.6875 C-10.25 8.875 -10.25 8.875 -12.625 8.6875 C-12.2905974 5.59427596 -12.0654882 4.09862232 -9.75 1.9375 C-6.29476066 -0.09499373 -3.90107497 -0.42568733 0 0 Z " fill="#363638" transform="translate(168.625,43.3125)"/>
<path d="M0 0 C0.66 0.99 1.32 1.98 2 3 C6.65145592 3.38024775 6.65145592 3.38024775 11 2 C11 2.66 11 3.32 11 4 C11.66 4 12.32 4 13 4 C13 4.66 13 5.32 13 6 C12.01 6.33 11.02 6.66 10 7 C9.67 7.66 9.34 8.32 9 9 C1.82105263 10.27368421 1.82105263 10.27368421 -2 9 C-1.67 8.34 -1.34 7.68 -1 7 C1.64 7.33 4.28 7.66 7 8 C7 7.34 7 6.68 7 6 C4.03 5.505 4.03 5.505 1 5 C0.67 3.35 0.34 1.7 0 0 Z " fill="#5A5A5B" transform="translate(160,61)"/>
<path d="M0 0 C3 1 3 1 4 3 C7.02934491 3.65772428 7.02934491 3.65772428 10 4 C10 7.3 10 10.6 10 14 C9.01 14 8.02 14 7 14 C7.1546875 12.6078125 7.1546875 12.6078125 7.3125 11.1875 C7.209375 10.135625 7.10625 9.08375 7 8 C4.62387135 6.39092892 4.62387135 6.39092892 2 5 C0.6875 2.3125 0.6875 2.3125 0 0 Z " fill="#AAAAAB" transform="translate(77,48)"/>
<path d="M0 0 C0.9075 0.103125 1.815 0.20625 2.75 0.3125 C2.75 1.9625 2.75 3.6125 2.75 5.3125 C-0.55 5.3125 -3.85 5.3125 -7.25 5.3125 C-4.05 0.38942308 -4.05 0.38942308 0 0 Z " fill="#F8F8F8" transform="translate(168.25,48.6875)"/>
<path d="M0 0 C0.79664063 0.07863281 1.59328125 0.15726563 2.4140625 0.23828125 C3.06117188 0.38652344 3.70828125 0.53476562 4.375 0.6875 C4.705 1.3475 5.035 2.0075 5.375 2.6875 C3.725 2.6875 2.075 2.6875 0.375 2.6875 C0.375 3.3475 0.375 4.0075 0.375 4.6875 C-1.605 4.6875 -3.585 4.6875 -5.625 4.6875 C-5.625 6.3375 -5.625 7.9875 -5.625 9.6875 C-5.955 9.6875 -6.285 9.6875 -6.625 9.6875 C-6.604375 8.57375 -6.58375 7.46 -6.5625 6.3125 C-6.36119282 2.85534079 -6.36119282 2.85534079 -7.625 0.6875 C-4.59335415 -0.32304862 -3.10749249 -0.3390912 0 0 Z " fill="#454546" transform="translate(192.625,43.3125)"/>
<path d="M0 0 C1.98 0 3.96 0 6 0 C6 1.65 6 3.3 6 5 C1.25 6.125 1.25 6.125 -1 5 C-0.67 3.35 -0.34 1.7 0 0 Z " fill="#404041" transform="translate(271,34)"/>
<path d="M0 0 C3 0 6 0 9 0 C9 1.32 9 2.64 9 4 C3.375 5.125 3.375 5.125 0 4 C0 2.68 0 1.36 0 0 Z " fill="#303032" transform="translate(251,44)"/>
<path d="M0 0 C2.31 0 4.62 0 7 0 C7 1.32 7 2.64 7 4 C4.03 4 1.06 4 -2 4 C-1.34 2.68 -0.68 1.36 0 0 Z " fill="#FCFCFC" transform="translate(228,49)"/>
<path d="M0 0 C1.32 0.66 2.64 1.32 4 2 C4 3.32 4 4.64 4 6 C2.35 6.33 0.7 6.66 -1 7 C-1.625 4.625 -1.625 4.625 -2 2 C-1.34 1.34 -0.68 0.68 0 0 Z " fill="#3E3E40" transform="translate(55,25)"/>
<path d="M0 0 C-1.2065625 0.9590625 -1.2065625 0.9590625 -2.4375 1.9375 C-4.2750504 3.40603502 -4.2750504 3.40603502 -6 5 C-6.23678716 7.69235776 -6.42198025 10.36498156 -6.5625 13.0625 C-6.60568359 13.82111328 -6.64886719 14.57972656 -6.69335938 15.36132812 C-6.79973633 17.24065438 -6.90039934 19.12030244 -7 21 C-7.33 21 -7.66 21 -8 21 C-8.02696009 18.2291017 -8.04681952 15.4584655 -8.0625 12.6875 C-8.07087891 11.90181641 -8.07925781 11.11613281 -8.08789062 10.30664062 C-8.09111328 9.54931641 -8.09433594 8.79199219 -8.09765625 8.01171875 C-8.10289307 7.31522217 -8.10812988 6.61872559 -8.11352539 5.90112305 C-8 4 -8 4 -7 1 C-4.53721199 -0.231394 -2.7204945 -0.07159196 0 0 Z " fill="#DEDEDE" transform="translate(260,48)"/>
<path d="M0 0 C0.91007813 0.00902344 1.82015625 0.01804688 2.7578125 0.02734375 C3.45648438 0.03894531 4.15515625 0.05054688 4.875 0.0625 C5.205 0.7225 5.535 1.3825 5.875 2.0625 C2.575 2.0625 -0.725 2.0625 -4.125 2.0625 C-2.475 2.3925 -0.825 2.7225 0.875 3.0625 C0.875 3.3925 0.875 3.7225 0.875 4.0625 C-0.548125 4.5265625 -0.548125 4.5265625 -2 5 C-4.98580408 5.93644742 -4.98580408 5.93644742 -7.125 7.0625 C-8.125 4.0625 -8.125 4.0625 -7.125 1.0625 C-4.60024538 -0.19987731 -2.81299534 -0.03606404 0 0 Z " fill="#333335" transform="translate(144.125,43.9375)"/>
<path d="M0 0 C1.65 0.33 3.3 0.66 5 1 C4.67 2.65 4.34 4.3 4 6 C2.35 5.67 0.7 5.34 -1 5 C-0.67 3.35 -0.34 1.7 0 0 Z " fill="#39393A" transform="translate(65,26)"/>
<path d="M0 0 C1.051875 0.2475 2.10375 0.495 3.1875 0.75 C3.1875 1.08 3.1875 1.41 3.1875 1.75 C0.5475 2.08 -2.0925 2.41 -4.8125 2.75 C-3.4925 3.41 -2.1725 4.07 -0.8125 4.75 C-2.4625 4.75 -4.1125 4.75 -5.8125 4.75 C-6.1425 5.74 -6.4725 6.73 -6.8125 7.75 C-7.4725 6.43 -8.1325 5.11 -8.8125 3.75 C-5.66311307 0.60061307 -4.55934222 -0.29897326 0 0 Z " fill="#444445" transform="translate(129.8125,43.25)"/>
<path d="M0 0 C0.99 0.33 1.98 0.66 3 1 C2.67 2.65 2.34 4.3 2 6 C0.68 5.67 -0.64 5.34 -2 5 C-2 3.68 -2 2.36 -2 1 C-1.34 0.67 -0.68 0.34 0 0 Z " fill="#1E1E21" transform="translate(78,26)"/>
<path d="M0 0 C1.65 0 3.3 0 5 0 C3.70700306 2.88437779 2.34058637 4.87219421 0 7 C-0.33 6.01 -0.66 5.02 -1 4 C-0.34 3.34 0.32 2.68 1 2 C0.67 1.34 0.34 0.68 0 0 Z " fill="#29292B" transform="translate(237,62)"/>
<path d="M0 0 C1.98 0.66 3.96 1.32 6 2 C6 2.99 6 3.98 6 5 C4.35 4.67 2.7 4.34 1 4 C0.67 2.68 0.34 1.36 0 0 Z " fill="#C7C7C7" transform="translate(75,63)"/>
<path d="M0 0 C0.36923077 5.53846154 0.36923077 5.53846154 -1.5 7.875 C-2.2425 8.431875 -2.2425 8.431875 -3 9 C-3 6.36 -3 3.72 -3 1 C-1 0 -1 0 0 0 Z " fill="#BEBEBE" transform="translate(156,60)"/>
<path d="M0 0 C0.66 0 1.32 0 2 0 C1.67 0.99 1.34 1.98 1 3 C0.34 3 -0.32 3 -1 3 C-0.67 5.64 -0.34 8.28 0 11 C-0.66 10.67 -1.32 10.34 -2 10 C-2.1953125 3.9453125 -2.1953125 3.9453125 -2 2 C-1.34 1.34 -0.68 0.68 0 0 Z " fill="#444446" transform="translate(183,45)"/>
<path d="M0 0 C1.134375 0.020625 2.26875 0.04125 3.4375 0.0625 C3.4375 0.3925 3.4375 0.7225 3.4375 1.0625 C2.509375 1.35125 1.58125 1.64 0.625 1.9375 C-2.66041667 2.95 -2.66041667 2.95 -5.5625 5.0625 C-4.43693182 0.07784091 -4.43693182 0.07784091 0 0 Z " fill="#D9D9D9" transform="translate(166.5625,47.9375)"/>
</svg>
