<?xml version="1.0" encoding="UTF-8"?>
<svg version="1.1" xmlns="http://www.w3.org/2000/svg" width="1140" height="214">
<path d="M0 0 C0.78127258 -0.00979385 1.56254517 -0.01958771 2.36749268 -0.02967834 C44.77937256 -0.45094501 93.23346113 5.36182478 125.42578125 35.9375 C134.35232125 45.39047698 138.5453646 58.93372901 138.94921875 71.73828125 C138.88294737 73.24043264 138.77462566 74.74100627 138.63671875 76.23828125 C138.54390625 77.24890625 138.45109375 78.25953125 138.35546875 79.30078125 C133.86622675 117.28667511 111.20623412 152.82398541 85.63671875 180.23828125 C84.8890625 181.05167969 84.14140625 181.86507812 83.37109375 182.703125 C68.51678065 198.27064187 47.09470032 212.92599877 25.01220703 214.4152832 C-0.71813174 214.97736458 -20.35494872 209.7948839 -40.36328125 193.23828125 C-41.1625 192.59117187 -41.96171875 191.9440625 -42.78515625 191.27734375 C-48.77593206 186.21617109 -53.60352377 180.45016814 -58.36328125 174.23828125 C-59.53503906 172.74941406 -59.53503906 172.74941406 -60.73046875 171.23046875 C-72.49488763 155.85842091 -81.42454737 137.94610623 -86.36328125 119.23828125 C-86.67217285 118.12598145 -86.67217285 118.12598145 -86.98730469 116.99121094 C-94.04203562 90.83409642 -92.95807511 62.60401151 -79.37158203 38.91699219 C-77.03325008 35.02392428 -74.41509405 31.5933798 -71.36328125 28.23828125 C-70.64785156 27.41972656 -69.93242188 26.60117187 -69.1953125 25.7578125 C-52.05068902 7.27070627 -24.55549731 0.25629021 0 0 Z M-14.30078125 72.11328125 C-22.39676898 82.09250833 -23.60847184 93.8226701 -22.36328125 106.23828125 C-19.6073724 118.17626026 -12.59092087 128.64574107 -2.66796875 135.8046875 C7.60513099 142.19490378 18.77177037 144.12734599 30.6796875 141.58984375 C45.3210831 136.64599589 56.67570459 126.95375128 63.63671875 113.23828125 C67.94255706 103.6636376 70.64935019 94.21606129 67.98828125 83.66796875 C63.80934054 73.4170629 55.10279068 65.70090724 45.26171875 60.98828125 C25.50554749 52.91080067 0.60634277 56.32556763 -14.30078125 72.11328125 Z " fill="#5851FF" transform="translate(90.36328125,-0.23828125)"/>
<path d="M0 0 C0.87140625 0.59554687 1.7428125 1.19109375 2.640625 1.8046875 C15.45364007 11.27688575 24.09346182 25.87893838 27.52734375 41.3828125 C30.0391388 60.60531015 27.8625496 78.54548699 17 95 C14.21716156 98.58156903 11.22153159 101.81139719 8 105 C7.33613281 105.69738281 6.67226563 106.39476562 5.98828125 107.11328125 C-7.54920139 120.39290708 -26.5117313 125.25822105 -44.94580078 125.2487793 C-63.07496047 124.99346489 -80.76309623 118.06501709 -94.25390625 105.8359375 C-107.35423251 92.06154524 -114.63065645 75.16588815 -114.4375 56.1875 C-114.42992676 55.13723633 -114.42235352 54.08697266 -114.41455078 53.00488281 C-114.23974188 44.73399727 -113.18952024 37.7005551 -110 30 C-109.57589844 28.97003906 -109.15179688 27.94007812 -108.71484375 26.87890625 C-100.72284696 9.40337009 -86.45582994 -1.73331966 -69 -9 C-65.03375071 -10.31563391 -61.11240258 -11.27019335 -57 -12 C-56.22914063 -12.14179687 -55.45828125 -12.28359375 -54.6640625 -12.4296875 C-35.53643739 -15.10624938 -15.88278247 -10.97105494 0 0 Z M-77.09765625 26.47265625 C-85.56302994 37.71926155 -88.3333862 50.15801899 -87 64 C-84.56198012 76.54047352 -77.19301813 86.50954969 -67 94 C-56.78181052 100.32401333 -45.58538678 102.80313613 -33.7265625 100.3125 C-22.0321767 97.04134313 -11.61126032 90.67861752 -5.23828125 80.06640625 C1.0784409 67.81533011 3.49169467 54.94175768 -0.625 41.5625 C-5.47097028 29.04091945 -13.79475215 19.83878462 -25.97265625 14.1875 C-43.88735945 7.1603132 -64.10213919 12.31552873 -77.09765625 26.47265625 Z " fill="#5851FF" transform="translate(401,69)"/>
<path d="M0 0 C4.36138054 2.90758702 8.07627951 5.61441926 11 10 C11.33 5.38 11.66 0.76 12 -4 C20.58 -4 29.16 -4 38 -4 C38 29.99 38 63.98 38 99 C29.42 99 20.84 99 12 99 C11.67 94.71 11.34 90.42 11 86 C9.906875 87.216875 8.81375 88.43375 7.6875 89.6875 C-1.22414675 98.6308608 -11.79462357 100.29481635 -23.91186523 100.31689453 C-34.94015814 100.13724813 -44.417902 96.99645323 -53 90 C-53.68707031 89.44828125 -54.37414062 88.8965625 -55.08203125 88.328125 C-62.7817741 81.43810654 -68.69235646 70.33038397 -70 60 C-70.13148438 58.98808594 -70.26296875 57.97617188 -70.3984375 56.93359375 C-72.08054474 40.20597177 -69.4356483 24.8660419 -59.06640625 11.44140625 C-45.84709188 -4.17687632 -18.26070741 -10.83048853 0 0 Z M-35.55078125 24.34375 C-43.53352631 33.46688721 -44.72145685 42.39407928 -44.17919922 54.05126953 C-43.49036537 61.54210303 -39.53999019 68.05217028 -34 73 C-26.1734001 78.56860036 -18.36590973 78.7220415 -9 78 C-2.28391698 76.37007342 2.87223385 72.48939291 7 67 C11.91581038 58.15452965 13.54932242 49.04661705 11.3515625 39.05078125 C8.76136625 31.11415428 4.51309786 24.86200825 -2.75 20.5625 C-13.1891297 15.54368764 -26.72938544 16.41657787 -35.55078125 24.34375 Z " fill="#5951FF" transform="translate(881,93)"/>
<path d="M0 0 C8.25 0 16.5 0 25 0 C25.33 18.15 25.66 36.3 26 55 C29.96 50.545 29.96 50.545 34 46 C46.70416895 38.62844518 60.86786048 36.68955595 75.3125 39.6875 C77.74254838 40.59876814 79.80500316 41.6211468 82 43 C82.71027344 43.42410156 83.42054687 43.84820312 84.15234375 44.28515625 C92.62881737 49.95192353 97.02331296 58.1661854 99 68 C99.40090325 73.72536831 99.35080644 79.42776043 99.29296875 85.1640625 C99.28736297 86.80886444 99.28309752 88.45367145 99.28010559 90.09848022 C99.26873404 94.39587605 99.23933457 98.69296035 99.20599365 102.99023438 C99.1751255 107.38797799 99.16156472 111.78577268 99.14648438 116.18359375 C99.11445618 124.78922033 99.06175262 133.39453534 99 142 C90.42 142 81.84 142 73 142 C72.9906543 140.10314453 72.98130859 138.20628906 72.97167969 136.25195312 C72.93605585 129.96136795 72.88219698 123.67114196 72.81609726 117.38080597 C72.77670812 113.56960919 72.74447814 109.75864048 72.72900391 105.94726562 C72.71378019 102.2640966 72.67923545 98.58155495 72.63169098 94.89866638 C72.61693561 93.49862646 72.60896236 92.09849694 72.60811615 90.69837952 C72.59698875 81.51306871 72.42266822 74.42266822 65.625 67.625 C58.88906646 63.45513638 51.42861846 62.80812493 43.72265625 64.5 C36.74491668 66.85716346 32.55497662 70.52482352 29.1875 77 C26.67897571 82.19564901 25.88715407 86.86971116 25.79467773 92.61645508 C25.77473251 93.71721878 25.75478729 94.81798248 25.73423767 95.95210266 C25.70916893 97.71797981 25.70916893 97.71797981 25.68359375 99.51953125 C25.66281265 100.73323898 25.64203156 101.94694672 25.62062073 103.19743347 C25.55531084 107.06906551 25.49632637 110.94076455 25.4375 114.8125 C25.39429715 117.43946002 25.35068229 120.06641329 25.30664062 122.69335938 C25.19887431 129.1288386 25.09966215 135.56436974 25 142 C16.75 142 8.5 142 0 142 C0 95.14 0 48.28 0 0 Z " fill="#5851FF" transform="translate(1041,50)"/>
<path d="M0 0 C0.70769531 0.2784375 1.41539062 0.556875 2.14453125 0.84375 C12.57305596 5.46978773 19.09401352 13.63754863 23.22265625 24.09765625 C27.29110061 35.8655222 27 44.77933945 27 58 C2.58 58.33 -21.84 58.66 -47 59 C-42.47148347 68.05703306 -39.08612676 74.30583027 -29.6875 77.9375 C-21.0345498 80.33118554 -12.20023318 79.59752165 -4 76 C-1.57517933 74.53595733 0.71756762 72.99176719 2.9921875 71.3046875 C5.11939186 69.92241852 6.48682004 69.29870973 9 69 C10.64746094 70.07983398 10.64746094 70.07983398 12.234375 71.74609375 C13.09482422 72.63071289 13.09482422 72.63071289 13.97265625 73.53320312 C14.55917969 74.16162109 15.14570312 74.79003906 15.75 75.4375 C16.35199219 76.06205078 16.95398438 76.68660156 17.57421875 77.33007812 C19.0609301 78.87578596 20.5319865 80.4365232 22 82 C18.11559064 90.4418382 8.34912698 94.65743581 0.1171875 97.9921875 C-15.81366992 103.14276546 -33.93295827 103.02589315 -49.08984375 95.45703125 C-61.59068874 87.96338343 -68.8665657 78.10818839 -73.17578125 64.20703125 C-74.28474112 59.3872318 -74.34323853 54.6150196 -74.3125 49.6875 C-74.30758545 48.75832764 -74.3026709 47.82915527 -74.29760742 46.87182617 C-74.18345464 40.1918397 -73.57189404 34.22669084 -71 28 C-70.67128906 27.16726562 -70.34257813 26.33453125 -70.00390625 25.4765625 C-64.58862823 13.29687146 -55.07443062 5.24144677 -43.18359375 -0.31640625 C-30.41383965 -5.09465844 -12.6661799 -5.27567996 0 0 Z M-42 25 C-46.0099004 30.20603546 -47.02444144 33.17109005 -48 40 C-31.17 40 -14.34 40 3 40 C2.04096195 31.36865755 1.72405391 28.65019515 -4 23 C-15.57215993 14.04878992 -31.41625894 14.41625894 -42 25 Z " fill="#5851FF" transform="translate(772,92)"/>
<path d="M0 0 C8.58 0 17.16 0 26 0 C26.01401855 2.89072266 26.01401855 2.89072266 26.02832031 5.83984375 C26.0639412 12.23021068 26.11779825 18.62022389 26.18390274 25.01034546 C26.22329528 28.88207616 26.25552363 32.75358224 26.27099609 36.62548828 C26.28621752 40.36700741 26.32075837 44.10790865 26.36830902 47.84915161 C26.38306672 49.27152108 26.39103778 50.69397879 26.39188385 52.11642456 C26.34721919 64.2947923 26.34721919 64.2947923 32.41143799 74.50732422 C37.98530146 79.50269008 43.10898826 80.40546133 50.34765625 80.25 C56.45752541 79.67410659 60.06329434 76.46869291 64 72 C67.50215489 66.87184462 68.11921596 62.91314567 68.20532227 56.76269531 C68.22526749 55.50169006 68.24521271 54.24068481 68.26576233 52.94146729 C68.28274401 51.57035443 68.29962291 50.1992403 68.31640625 48.828125 C68.33698835 47.42136033 68.35798515 46.01460167 68.37937927 44.60784912 C68.43447035 40.91226073 68.48393655 37.21661774 68.53222656 33.52093506 C68.58253649 29.74698041 68.63817293 25.97310468 68.69335938 22.19921875 C68.80078231 14.79954425 68.90176973 7.39980329 69 0 C77.25 0 85.5 0 94 0 C94.09080253 8.91960235 94.16400285 17.8388917 94.20724869 26.75885391 C94.22801709 30.90191232 94.25613471 35.04463483 94.30175781 39.1875 C94.34560371 43.19461054 94.36921765 47.20140047 94.37950897 51.2087326 C94.38683157 52.72838123 94.40112844 54.24801471 94.42292023 55.76752472 C94.5993963 68.59725088 93.12884232 80.26116591 84 90 C73.84532843 100.26001048 61.90182256 104.25190883 47.5625 104.375 C34.16768186 104.21606836 22.02990475 101.24720645 11.8359375 92.046875 C0.9610762 80.2927696 -0.46912486 65.79198735 -0.29296875 50.390625 C-0.28735778 48.92804403 -0.2830948 47.46545733 -0.28010559 46.00286865 C-0.26877468 42.19539193 -0.23941248 38.38827096 -0.20599365 34.58093262 C-0.1750357 30.679004 -0.16154589 26.77701662 -0.14648438 22.875 C-0.11452833 15.24982078 -0.06186038 7.62500601 0 0 Z " fill="#5951FF" transform="translate(444,89)"/>
<path d="M0 0 C3.19371823 2.43758958 5.84081577 4.65258221 8.359375 7.80078125 C8.30428609 11.47599879 6.05536529 13.46950948 3.55664062 15.96484375 C3.05841797 16.44695312 2.56019531 16.9290625 2.046875 17.42578125 C1.56025391 17.915625 1.07363281 18.40546875 0.57226562 18.91015625 C-1.97904479 21.42369491 -4.30132319 23.45236959 -7.640625 24.80078125 C-8.04152344 24.4140625 -8.44242188 24.02734375 -8.85546875 23.62890625 C-16.84252965 16.31196157 -24.80876094 13.69941354 -35.640625 13.80078125 C-42.60320668 14.31531166 -47.68034074 16.90547888 -52.640625 21.80078125 C-58.87707678 29.46180323 -60.56681584 38.09782957 -59.640625 47.80078125 C-58.25672497 55.47619317 -55.21000309 62.19676473 -48.9765625 67.11328125 C-40.84502482 72.16300328 -32.81009696 72.44113724 -23.640625 70.80078125 C-17.94679917 69.13448825 -12.95608221 66.97703016 -8.640625 62.80078125 C-8.310625 62.14078125 -7.980625 61.48078125 -7.640625 60.80078125 C-3.53977956 61.36307211 -1.18662754 63.56210157 1.921875 66.17578125 C2.87191406 66.96726562 3.82195312 67.75875 4.80078125 68.57421875 C6.73872636 70.2606748 8.5842017 71.94790676 10.359375 73.80078125 C0.55279752 85.54482845 -9.86769114 93.29859707 -25.640625 94.80078125 C-42.64802025 95.83355158 -57.2054192 93.58776359 -70.890625 82.61328125 C-80.89001394 73.26958995 -85.840249 60.1663065 -86.87890625 46.71484375 C-87.22417019 31.4141997 -83.79072003 16.93962264 -73.38671875 5.2734375 C-54.19140196 -13.24403503 -21.79953712 -15.0597394 0 0 Z " fill="#5851FF" transform="translate(1019.640625,98.19921875)"/>
<path d="M0 0 C0 10.23 0 20.46 0 31 C9.57 31 19.14 31 29 31 C29 37.27 29 43.54 29 50 C19.43 50 9.86 50 0 50 C0.07411178 56.70839425 0.15704757 63.41548301 0.26245117 70.12329102 C0.29563367 72.40349486 0.32368624 74.68377953 0.34643555 76.96411133 C0.38010382 80.24855882 0.43242726 83.53227014 0.48828125 86.81640625 C0.49467117 87.83021866 0.5010611 88.84403107 0.50764465 89.88856506 C0.62651963 95.65670797 1.17532847 99.92251765 4 105 C9.95720872 107.97860436 17.19021183 105.60869748 23.12890625 103.65625 C23.74636719 103.4396875 24.36382813 103.223125 25 103 C26.01620277 105.66148345 27.01476068 108.3270413 28 111 C28.44666016 112.18529297 28.44666016 112.18529297 28.90234375 113.39453125 C29.18207031 114.17183594 29.46179688 114.94914062 29.75 115.75 C30.14445313 116.82507813 30.14445313 116.82507813 30.546875 117.921875 C31.1019709 120.46765964 31.16393548 121.64798101 30 124 C27.41796875 125.44921875 27.41796875 125.44921875 24.1875 126.6875 C23.12917969 127.10386719 22.07085938 127.52023438 20.98046875 127.94921875 C11.9959131 131.11677507 0.43300501 131.74379507 -8.625 128.375 C-16.29938471 124.64222104 -20.85608649 119.92739481 -24 112 C-24.93542819 109.19371544 -25.12368604 107.51470368 -25.12025452 104.61506653 C-25.12162918 103.71904221 -25.12300385 102.82301788 -25.12442017 101.89984131 C-25.12082489 100.91944885 -25.11722961 99.9390564 -25.11352539 98.92895508 C-25.11367142 97.89463852 -25.11381744 96.86032196 -25.1139679 95.79466248 C-25.1132702 92.36959754 -25.10548446 88.94458671 -25.09765625 85.51953125 C-25.09579156 83.14727305 -25.0943679 80.77501446 -25.09336853 78.40275574 C-25.08954736 72.15397074 -25.07972045 65.90520893 -25.06866455 59.65643311 C-25.05844186 53.2820263 -25.05386907 46.90761576 -25.04882812 40.53320312 C-25.03809786 28.02212552 -25.02121797 15.51106399 -25 3 C-23.42083758 2.67838525 -21.84134532 2.35838978 -20.26171875 2.0390625 C-19.38217529 1.86068848 -18.50263184 1.68231445 -17.59643555 1.49853516 C-11.65622329 0.35796972 -6.09371586 0 0 0 Z " fill="#5851FF" transform="translate(584,63)"/>
<path d="M0 0 C8.58 0 17.16 0 26 0 C26.495 7.92 26.495 7.92 27 16 C27.94875 14.80375 28.8975 13.6075 29.875 12.375 C35.0490466 6.45580672 42.21021662 1.58975171 50 0 C53.63 0 57.26 0 61 0 C61 7.92 61 15.84 61 24 C57.04 24.5878125 57.04 24.5878125 53 25.1875 C43.78732473 26.73179111 37.20896455 29.4069422 31.34492493 36.98500061 C26.49872227 44.24569986 26.53493997 52.4647077 26.48828125 60.91015625 C26.47033005 62.11820419 26.45237885 63.32625214 26.43388367 64.57090759 C26.38002122 68.40140368 26.34596135 72.23177685 26.3125 76.0625 C26.27930579 78.67124097 26.2448142 81.27996577 26.20898438 83.88867188 C26.12188431 90.25912995 26.06160647 96.62904114 26 103 C17.42 103 8.84 103 0 103 C0 69.01 0 35.02 0 0 Z " fill="#5951FF" transform="translate(632,89)"/>
</svg>
