<?xml version="1.0" encoding="UTF-8"?>
<svg version="1.1" xmlns="http://www.w3.org/2000/svg" width="440" height="70">
<path d="M0 0 C17.16 0 34.32 0 52 0 C52 5.28 52 10.56 52 16 C61.57 16.33 71.14 16.66 81 17 C81 23.27 81 29.54 81 36 C66.645 36.495 66.645 36.495 52 37 C52 41.29 52 45.58 52 50 C61.24 50 70.48 50 80 50 C80 56.27 80 62.54 80 69 C70.1 69 60.2 69 50 69 C50 63.72 50 58.44 50 53 C33.5 53 17 53 0 53 C0 46.4 0 39.8 0 33 C16.5 33 33 33 50 33 C50 28.38 50 23.76 50 19 C33.5 19 17 19 0 19 C0 12.73 0 6.46 0 0 Z " fill="#FE9833" transform="translate(3,1)"/>
<path d="M0 0 C3.49993954 -0.08423958 6.99934886 -0.14073558 10.5 -0.1875 C11.97339844 -0.22520508 11.97339844 -0.22520508 13.4765625 -0.26367188 C21.10471222 -0.33995337 26.9309125 0.38801064 32.9375 5.5 C36.16480046 9.41187934 36.3407912 12.83095763 36.28515625 17.7109375 C35.84223476 21.26644424 34.32825076 23.34838108 32 26 C30.68939589 26.71030916 29.35855654 27.38636627 28 28 C28.6496875 28.91523437 29.299375 29.83046875 29.96875 30.7734375 C30.81274508 31.97378605 31.65648173 33.17431634 32.5 34.375 C32.92925781 34.97828125 33.35851562 35.5815625 33.80078125 36.203125 C37 40.7734375 37 40.7734375 37 43 C33.83690989 43.58097573 31.14385604 43.75233322 28 43 C24.57001175 39.87321513 22.07033744 36.14067488 20 32 C16.34850439 31.39616453 12.69649725 31.25493084 9 31 C9 34.96 9 38.92 9 43 C2.84765625 43.09765625 2.84765625 43.09765625 1 43 C0 42 0 42 -0.11352539 38.03100586 C-0.1133662 36.25894393 -0.10766785 34.4868774 -0.09765625 32.71484375 C-0.0962413 31.78402481 -0.09482635 30.85320587 -0.09336853 29.8941803 C-0.08775172 26.90858809 -0.0751964 23.92306971 -0.0625 20.9375 C-0.05748716 18.91862087 -0.05292388 16.89974057 -0.04882812 14.88085938 C-0.03777683 9.92054428 -0.02050095 4.96028468 0 0 Z M9 8 C9 12.95 9 17.9 9 23 C12.0628125 23.12375 12.0628125 23.12375 15.1875 23.25 C16.91033203 23.31960937 16.91033203 23.31960937 18.66796875 23.390625 C22.66347841 22.92221824 24.23825127 21.87916134 27 19 C27.83333333 15.5 27.83333333 15.5 27 12 C24.23825127 9.12083866 22.66347841 8.07778176 18.66796875 7.609375 C16.94513672 7.67898437 16.94513672 7.67898437 15.1875 7.75 C12.1246875 7.87375 12.1246875 7.87375 9 8 Z " fill="#000000" transform="translate(104,16)"/>
<path d="M0 0 C17.16 0 34.32 0 52 0 C52 16 52 16 51 19 C34.17 19 17.34 19 0 19 C0 12.73 0 6.46 0 0 Z " fill="#FE0000" transform="translate(3,1)"/>
<path d="M0 0 C1.59134766 -0.02126953 1.59134766 -0.02126953 3.21484375 -0.04296875 C6.0625 0.1875 6.0625 0.1875 9.0625 2.1875 C9.3925 1.5275 9.7225 0.8675 10.0625 0.1875 C12.7025 0.1875 15.3425 0.1875 18.0625 0.1875 C18.16190876 4.90138705 18.23422034 9.61465442 18.28222656 14.3293457 C18.30225347 15.93069091 18.32948354 17.5319638 18.36425781 19.13305664 C18.41317419 21.44435537 18.43555711 23.75468154 18.453125 26.06640625 C18.47377014 26.77398575 18.49441528 27.48156525 18.51568604 28.21058655 C18.51814238 33.74059045 17.12714987 36.75165771 14.0625 41.1875 C7.70425898 45.54209364 0.46958451 44.93848509 -6.9375 44.1875 C-10.05153444 43.1671568 -12.17329596 41.99269448 -14.9375 40.1875 C-13.0625 35.4375 -13.0625 35.4375 -11.9375 33.1875 C-11.36902344 33.4040625 -10.80054688 33.620625 -10.21484375 33.84375 C-4.51883286 35.89773723 0.4209233 37.24164062 6.4375 35.5 C8.32082685 34.23634835 8.32082685 34.23634835 8.8125 31.5625 C8.895 30.77875 8.9775 29.995 9.0625 29.1875 C8.50304687 29.51105469 7.94359375 29.83460937 7.3671875 30.16796875 C2.3568145 32.38442189 -3.25612584 31.77909461 -8.3125 30 C-13.49333106 26.4227595 -15.68157097 22.62951215 -16.80859375 16.52734375 C-17.0266586 12.56913639 -16.03890498 9.52502555 -13.9375 6.1875 C-9.6369031 1.59031021 -6.20877895 0.03762896 0 0 Z M-5.9375 9.1875 C-8.03429403 11.88337803 -7.93260821 13.280444 -7.75 16.75 C-7.15655597 20.03735341 -7.15655597 20.03735341 -5.8125 22.0625 C-2.85443888 23.83733667 -0.35949954 24.06950002 3.0625 24.1875 C6.63637602 22.59911066 7.87339572 21.47115642 10.0625 18.1875 C9.83257266 13.41468531 9.83257266 13.41468531 7.625 9.3125 C3.39670432 6.26812711 -1.63469266 6.11406619 -5.9375 9.1875 Z " fill="#000000" transform="translate(235.9375,25.8125)"/>
<path d="M0 0 C2.64 0 5.28 0 8 0 C10.31 6.27 12.62 12.54 15 19 C16.60122557 16.59816164 17.53585561 14.84821846 18.5078125 12.20703125 C18.77207031 11.49482422 19.03632813 10.78261719 19.30859375 10.04882812 C19.57800781 9.31083984 19.84742188 8.57285156 20.125 7.8125 C20.40214844 7.06291016 20.67929687 6.31332031 20.96484375 5.54101562 C21.64670402 3.69529041 22.32381559 1.84781213 23 0 C25.64 0 28.28 0 31 0 C33.64 6.6 36.28 13.2 39 20 C41.26171582 13.79322221 41.26171582 13.79322221 43.51733398 7.58422852 C43.79907471 6.81522217 44.08081543 6.04621582 44.37109375 5.25390625 C44.65911865 4.46314697 44.94714355 3.6723877 45.24389648 2.85766602 C46 1 46 1 47 0 C49.33297433 -0.04092937 51.66705225 -0.04241723 54 0 C53.4121902 4.13837988 52.47407959 7.8206719 51.00390625 11.73046875 C50.61009766 12.78041016 50.21628906 13.83035156 49.81054688 14.91210938 C49.39869141 15.99298828 48.98683594 17.07386719 48.5625 18.1875 C48.15451172 19.27998047 47.74652344 20.37246094 47.32617188 21.49804688 C44.26535848 29.60196229 44.26535848 29.60196229 42 33 C38.92078868 33.25660094 36.78863007 33.39431504 34 32 C33.13037109 30.23413086 33.13037109 30.23413086 32.2734375 27.96484375 C31.809375 26.75151367 31.809375 26.75151367 31.3359375 25.51367188 C31.01882813 24.66353516 30.70171875 23.81339844 30.375 22.9375 C29.88773437 21.65649414 29.88773437 21.65649414 29.390625 20.34960938 C28.58744885 18.23536628 27.79089786 16.11886025 27 14 C26.79842285 14.54003662 26.5968457 15.08007324 26.38916016 15.63647461 C25.47505367 18.0729543 24.55018875 20.50520815 23.625 22.9375 C23.30789063 23.78763672 22.99078125 24.63777344 22.6640625 25.51367188 C22.3546875 26.32255859 22.0453125 27.13144531 21.7265625 27.96484375 C21.30238037 29.08814087 21.30238037 29.08814087 20.86962891 30.23413086 C20 32 20 32 18 33 C16.00039988 33.039992 13.99952758 33.04346799 12 33 C8.6964474 26.72771433 6.14539285 20.35467676 3.75 13.6875 C3.20472656 12.20540039 3.20472656 12.20540039 2.6484375 10.69335938 C2.13410156 9.27313477 2.13410156 9.27313477 1.609375 7.82421875 C1.29967773 6.96916748 0.98998047 6.11411621 0.67089844 5.2331543 C0 3 0 3 0 0 Z " fill="#000000" transform="translate(386,26)"/>
<path d="M0 0 C10.23 0 20.46 0 31 0 C31 2.64 31 5.28 31 8 C23.74 8 16.48 8 9 8 C9 11.63 9 15.26 9 19 C15.6 19 22.2 19 29 19 C29 21.64 29 24.28 29 27 C22.4 27 15.8 27 9 27 C9.0395679 31.89153471 9.0395679 31.89153471 9.09008789 36.78295898 C9.09724913 38.52221717 9.05024702 40.26145304 9 42 C8.505 42.495 8.505 42.495 8 43 C5.36 43 2.72 43 0 43 C0 28.81 0 14.62 0 0 Z " fill="#000000" transform="translate(300,16)"/>
<path d="M0 0 C4.87995132 2.26569169 7.63239735 5.17373306 10 10 C10 12.97 10 15.94 10 19 C2.08 19 -5.84 19 -14 19 C-10.77986094 24.08706714 -10.77986094 24.08706714 -7.5625 24.55859375 C-6.2940625 24.49865234 -6.2940625 24.49865234 -5 24.4375 C-4.154375 24.41558594 -3.30875 24.39367187 -2.4375 24.37109375 C0.07638458 23.98837094 1.80900013 23.26286798 4 22 C5.32 23.32 6.64 24.64 8 26 C7.00147198 28.89573124 6.03905844 29.97265909 3.5 31.75 C-2.5845461 33.92305218 -8.41246965 34.03366558 -14.375 31.375 C-19.04243313 28.72540665 -21.32020519 25.03938442 -23 20 C-23.36826224 14.38400084 -23.21556007 10.82334011 -20 6 C-13.71757226 -0.19866203 -8.62790476 -0.8018079 0 0 Z M-12.5 8.875 C-14.19222773 10.83880904 -14.19222773 10.83880904 -14 13 C-8.72 13 -3.44 13 2 13 C0.23148964 9.81925835 0.23148964 9.81925835 -2 7 C-7.67146382 6.3879884 -7.67146382 6.3879884 -12.5 8.875 Z " fill="#000000" transform="translate(283,26)"/>
<path d="M0 0 C5.09780055 5.23195319 5.72686393 10.44228916 5.6875 17.46875 C5.666875 18.4071875 5.64625 19.345625 5.625 20.3125 C5.61984375 21.27414063 5.6146875 22.23578125 5.609375 23.2265625 C5.52964286 30.28285714 5.52964286 30.28285714 4.375 31.4375 C0.71155389 31.57318319 -2.13115721 31.60211426 -5.625 30.4375 C-7.11 30.9325 -7.11 30.9325 -8.625 31.4375 C-13.97734642 31.78281267 -17.28031768 31.91324585 -21.625 28.4375 C-23.99662473 26.06587527 -24.57204164 24.85234051 -25 21.5 C-24.5693383 17.98292943 -23.84462606 16.19289787 -21.625 13.4375 C-17.62386077 11.36548147 -14.27505236 11.22234743 -9.8125 11.3125 C-8.07033203 11.33957031 -8.07033203 11.33957031 -6.29296875 11.3671875 C-5.41253906 11.39039063 -4.53210938 11.41359375 -3.625 11.4375 C-4.9339572 8.31552522 -4.9339572 8.31552522 -7.625 6.4375 C-12.45112943 6.15906946 -16.12407826 6.68104273 -20.625 8.4375 C-23.625 3.6875 -23.625 3.6875 -23.625 1.4375 C-16.33440015 -2.63167201 -7.72370496 -3.32918317 0 0 Z M-16.625 20.4375 C-15.965 21.7575 -15.305 23.0775 -14.625 24.4375 C-9.36317054 24.91307746 -9.36317054 24.91307746 -4.625 23.1875 C-3.29424071 21.19459864 -3.29424071 21.19459864 -3.625 17.4375 C-5.22832791 17.35628076 -6.83284026 17.29820866 -8.4375 17.25 C-9.33082031 17.21519531 -10.22414062 17.18039063 -11.14453125 17.14453125 C-14.04147515 17.48668998 -14.85055028 18.19143573 -16.625 20.4375 Z " fill="#000000" transform="translate(168.625,27.5625)"/>
<path d="M0 0 C4.40468881 3.57880966 6.59504959 6.56527438 7.37890625 12.125 C7.62903028 18.06342849 7.12013108 21.87194935 3 26.4375 C-1.80561383 30.8826928 -5.30519661 31.81634035 -11.84375 31.71875 C-17.00677355 31.04531215 -20.90238613 28.59140176 -24.4375 24.875 C-27.58116062 19.97088944 -27.60175926 15.09403701 -27 9.4375 C-25.69178851 5.26068017 -23.39903584 2.76171662 -20 0 C-14.03714956 -2.96857425 -5.96285044 -2.96857425 0 0 Z M-15.875 7.375 C-18.37728329 10.9812318 -18.68948261 13.04642134 -18.41015625 17.34375 C-18.0845018 19.61626319 -18.0845018 19.61626319 -16.5 22 C-12.95912093 24.03600547 -9.988071 24.23183858 -6 23.4375 C-2.65761962 21.29494848 -2.10832046 19.83467502 -1.0625 16 C-0.99245846 12.00763213 -1.53534746 10.51831567 -4 7.4375 C-8.48720373 4.44603085 -11.36177402 4.33347815 -15.875 7.375 Z " fill="#000000" transform="translate(378,27.5625)"/>
<path d="M0 0 C2.64 0 5.28 0 8 0 C8.33 0.66 8.66 1.32 9 2 C9.99 1.34 10.98 0.68 12 0 C16.65519208 -0.63815764 21.68012661 -1.02958191 26.05078125 0.91015625 C29.70465524 3.72989523 30.92485399 6.64590192 32 11 C32.2545593 14.60866737 32.23426756 18.19662931 32.1875 21.8125 C32.18685547 22.77865234 32.18621094 23.74480469 32.18554688 24.74023438 C32.14052002 31.85947998 32.14052002 31.85947998 31 33 C28.32941149 33.14115161 25.67567762 33.04247107 23 33 C22.97494385 32.34402832 22.9498877 31.68805664 22.92407227 31.01220703 C22.8082674 28.04959817 22.68547114 25.08731969 22.5625 22.125 C22.52318359 21.09246094 22.48386719 20.05992188 22.44335938 18.99609375 C22.40146484 18.00996094 22.35957031 17.02382813 22.31640625 16.0078125 C22.27974854 15.09660645 22.24309082 14.18540039 22.20532227 13.24658203 C22.13422935 10.96516519 22.13422935 10.96516519 21 9 C17.08234111 8.18690098 13.82092412 7.62446732 10 9 C9.16628641 11.95508447 8.82110466 14.70109613 8.68359375 17.765625 C8.64169922 18.65507813 8.59980469 19.54453125 8.55664062 20.4609375 C8.51732422 21.38132812 8.47800781 22.30171875 8.4375 23.25 C8.39431641 24.18585937 8.35113281 25.12171875 8.30664062 26.0859375 C8.2008195 28.39048641 8.09873443 30.69513839 8 33 C5.36 33 2.72 33 0 33 C0 22.11 0 11.22 0 0 Z " fill="#000000" transform="translate(182,26)"/>
<path d="M0 0 C9.9 0 19.8 0 30 0 C30 6.27 30 12.54 30 19 C20.1 19 10.2 19 0 19 C-1.17245774 15.48262679 -1.13266285 12.6424868 -1.125 8.9375 C-1.12757812 7.68839844 -1.13015625 6.43929688 -1.1328125 5.15234375 C-1 2 -1 2 0 0 Z " fill="#558E1E" transform="translate(54,18)"/>
<path d="M0 0 C1.20970459 0.00523682 2.41940918 0.01047363 3.66577148 0.01586914 C4.97094727 0.0190918 6.27612305 0.02231445 7.62084961 0.02563477 C9.00952213 0.03399138 10.39819401 0.04245634 11.78686523 0.05102539 C13.17944179 0.05603873 14.57202005 0.06060193 15.96459961 0.06469727 C19.38453974 0.07653097 22.80445773 0.09446708 26.22436523 0.11352539 C26.22436523 6.38352539 26.22436523 12.65352539 26.22436523 19.11352539 C16.32436523 19.11352539 6.42436523 19.11352539 -3.77563477 19.11352539 C-3.79625977 16.16415039 -3.81688477 13.21477539 -3.83813477 10.17602539 C-3.84723877 9.24540283 -3.85634277 8.31478027 -3.86572266 7.35595703 C-3.86822021 6.62755615 -3.87071777 5.89915527 -3.87329102 5.14868164 C-3.87852783 4.39981689 -3.88376465 3.65095215 -3.88916016 2.87939453 C-3.69685602 -0.11186528 -3.01260716 0.12321773 0 0 Z " fill="#2A5F93" transform="translate(56.775634765625,50.886474609375)"/>
<path d="M0 0 C2.97 0 5.94 0 9 0 C9 14.85 9 29.7 9 45 C6.36 45 3.72 45 1 45 C0 44 0 44 -0.12025452 42.20933533 C-0.11803391 41.42990067 -0.11581329 40.650466 -0.11352539 39.84741211 C-0.11341209 38.52615578 -0.11341209 38.52615578 -0.11329651 37.1782074 C-0.10555458 35.74227989 -0.10555458 35.74227989 -0.09765625 34.27734375 C-0.0962413 33.30213272 -0.09482635 32.32692169 -0.09336853 31.32215881 C-0.08775133 28.19390857 -0.07519593 25.06572877 -0.0625 21.9375 C-0.05748722 19.82226666 -0.05292393 17.70703219 -0.04882812 15.59179688 C-0.03777631 10.39450393 -0.02050016 5.19726392 0 0 Z " fill="#000000" transform="translate(336,14)"/>
</svg>
