<?xml version="1.0" standalone="no"?>
<!DOCTYPE svg PUBLIC "-//W3C//DTD SVG 20010904//EN"
 "http://www.w3.org/TR/2001/REC-SVG-20010904/DTD/svg10.dtd">
<svg version="1.0" xmlns="http://www.w3.org/2000/svg"
 width="799.000000pt" height="191.000000pt" viewBox="0 0 799.000000 191.000000"
 preserveAspectRatio="xMidYMid meet">

<g transform="translate(0.000000,191.000000) scale(0.100000,-0.100000)"
fill="#000000" stroke="none">
<path d="M572 1488 c-7 -7 -12 -21 -12 -33 0 -13 128 -148 383 -403 349 -349
386 -383 413 -380 l29 3 3 399 c1 286 -1 403 -9 412 -16 19 -788 21 -807 2z"/>
<path d="M2950 1065 l0 -435 85 0 85 0 0 435 0 435 -85 0 -85 0 0 -435z"/>
<path d="M4450 1065 l0 -435 85 0 85 0 0 195 c0 221 5 241 66 270 47 22 99 14
133 -20 26 -25 26 -25 29 -235 l3 -210 86 0 85 0 -4 228 c-3 205 -5 231 -25
273 -32 71 -81 103 -163 107 -83 5 -129 -9 -177 -54 -19 -19 -36 -34 -37 -34
-1 0 0 79 2 175 l3 175 -85 0 -86 0 0 -435z"/>
<path d="M6790 1325 l0 -176 -34 35 c-45 44 -92 59 -176 54 -130 -7 -215 -93
-240 -240 -22 -126 10 -246 82 -315 96 -92 261 -88 342 7 l26 32 0 -46 0 -46
85 0 85 0 0 435 0 435 -85 0 -85 0 0 -175z m-55 -237 c39 -30 55 -77 55 -158
0 -123 -47 -180 -148 -180 -90 0 -135 61 -133 182 2 126 43 178 141 178 44 0
64 -5 85 -22z"/>
<path d="M1960 1243 c-85 -15 -149 -53 -175 -103 -8 -16 -15 -55 -15 -87 0
-106 47 -148 201 -179 116 -23 139 -36 139 -80 0 -77 -165 -81 -191 -4 -11 30
-11 30 -90 30 l-78 0 6 -32 c20 -108 95 -159 239 -166 110 -5 175 13 222 61
38 40 52 75 52 135 0 104 -55 151 -214 181 -131 25 -163 55 -111 106 17 18 35
25 63 25 42 0 92 -30 92 -56 0 -11 17 -14 80 -14 44 0 80 2 80 4 0 2 -7 23
-15 47 -20 55 -49 87 -100 109 -42 19 -142 31 -185 23z"/>
<path d="M4043 1240 c-161 -34 -228 -195 -126 -302 29 -30 85 -51 183 -68 74
-13 95 -23 110 -50 26 -48 -42 -100 -113 -86 -37 8 -77 42 -77 68 0 16 -9 18
-81 18 l-82 0 6 -36 c17 -101 99 -157 238 -162 172 -7 261 49 276 176 4 40 1
60 -16 94 -31 64 -81 88 -236 113 -83 14 -111 45 -85 95 24 44 131 36 155 -11
15 -28 18 -29 92 -29 l76 0 -7 31 c-11 55 -44 97 -99 123 -59 28 -150 39 -214
26z"/>
<path d="M2496 1225 c-72 -25 -114 -70 -130 -137 l-6 -28 76 0 c72 0 78 2 104
30 24 26 35 30 79 30 67 0 101 -30 101 -88 l0 -39 -92 -6 c-158 -11 -243 -49
-274 -124 -34 -81 0 -181 75 -222 61 -33 157 -34 224 -2 27 13 51 30 54 37 9
25 23 15 23 -16 l0 -30 81 0 80 0 -3 238 -3 239 -28 42 c-44 66 -107 91 -227
90 -55 0 -111 -6 -134 -14z m224 -378 c0 -55 -19 -81 -75 -103 -86 -32 -159
15 -133 86 16 42 54 58 146 59 l62 1 0 -43z"/>
<path d="M3373 1219 c-115 -45 -183 -154 -183 -293 0 -101 22 -159 85 -222 65
-65 128 -88 240 -87 129 2 215 45 254 127 35 71 32 76 -54 76 -72 0 -75 -1
-89 -29 -32 -61 -150 -77 -212 -29 -28 23 -54 74 -54 108 0 19 6 20 215 20
l215 0 0 65 c0 117 -54 212 -150 261 -55 28 -200 30 -267 3z m187 -102 c31
-16 70 -73 70 -103 0 -24 0 -24 -129 -24 -72 0 -132 4 -135 8 -2 4 4 27 14 50
32 70 115 102 180 69z"/>
<path d="M5238 1224 c-60 -18 -112 -69 -125 -123 l-11 -41 84 0 c67 0 84 3 84
14 0 25 42 46 92 46 61 0 95 -29 104 -86 l6 -41 -98 -6 c-169 -10 -247 -48
-279 -131 -34 -89 2 -182 83 -219 88 -39 204 -24 270 36 l22 20 0 -31 0 -32
80 0 80 0 0 225 c0 284 -9 311 -115 361 -41 20 -66 24 -140 23 -49 0 -111 -7
-137 -15z m222 -378 c0 -55 -28 -92 -81 -106 -76 -21 -129 6 -129 64 0 57 48
84 148 85 l62 1 0 -44z"/>
<path d="M5952 1219 c-23 -12 -51 -32 -61 -45 -10 -13 -21 -24 -23 -24 -2 0
-2 18 0 40 l4 40 -86 0 -86 0 0 -300 0 -300 85 0 85 0 0 195 c0 214 5 238 56
265 15 8 46 15 70 15 34 0 50 -6 71 -28 l28 -27 3 -210 3 -210 86 0 85 0 -4
228 c-4 258 -12 294 -84 348 -32 25 -48 29 -113 32 -62 2 -84 -1 -119 -19z"/>
<path d="M7028 1213 c5 -10 60 -132 121 -271 l113 -253 -51 -127 c-28 -70 -51
-131 -51 -135 0 -4 36 -7 81 -5 l81 3 58 145 c32 80 106 261 163 403 l104 257
-81 0 -82 0 -64 -175 c-36 -96 -67 -175 -71 -175 -3 0 -36 78 -75 173 l-69
172 -93 3 c-87 3 -92 2 -84 -15z"/>
<path d="M422 998 c-7 -7 -12 -19 -12 -28 0 -8 98 -113 218 -233 180 -180 223
-218 243 -215 l24 3 3 229 c2 160 -1 233 -9 242 -16 19 -448 21 -467 2z"/>
<path d="M347 676 c-7 -17 208 -231 222 -221 7 4 11 51 11 121 l0 114 -114 0
c-88 0 -115 -3 -119 -14z"/>
</g>
</svg>
