<?xml version="1.0" encoding="UTF-8"?>
<svg version="1.1" xmlns="http://www.w3.org/2000/svg" width="489" height="103">
<path d="M0 0 C161.37 0 322.74 0 489 0 C489 33.99 489 67.98 489 103 C327.63 103 166.26 103 0 103 C0 69.01 0 35.02 0 0 Z " fill="#FDFDFD" transform="translate(0,0)"/>
<path d="M0 0 C22.8628125 -0.061875 22.8628125 -0.061875 46.1875 -0.125 C53.40210083 -0.15231201 53.40210083 -0.15231201 60.76245117 -0.18017578 C66.64318848 -0.18920898 66.64318848 -0.18920898 69.3976593 -0.19088745 C71.31828234 -0.19395529 73.23890156 -0.20098254 75.15950012 -0.21115112 C78.07148922 -0.22579571 80.98324325 -0.22781181 83.89526367 -0.22705078 C85.17516442 -0.23784511 85.17516442 -0.23784511 86.48092175 -0.2488575 C92.5808963 -0.22752449 96.15448015 0.27620096 100.77206421 4.5892334 C103.7057397 8.39456579 103.70734319 11.90472202 103.64697266 16.57226562 C103.65573425 17.41206467 103.66449585 18.25186371 103.67352295 19.11711121 C103.69544898 21.88069005 103.68098892 24.64265617 103.6640625 27.40625 C103.6674326 29.33386541 103.67228684 31.26147876 103.67855835 33.18908691 C103.68592046 37.22408327 103.67524549 41.25852525 103.65185547 45.29345703 C103.62336811 50.45872373 103.63977563 55.6226914 103.66971779 60.78791046 C103.68780864 64.76688376 103.68202453 68.74555042 103.66907883 72.72453308 C103.66574976 74.62867894 103.66981431 76.53285288 103.68147659 78.43696594 C103.69421492 81.10130259 103.67476798 83.76355268 103.64697266 86.42773438 C103.66215439 87.60150887 103.66215439 87.60150887 103.67764282 88.79899597 C103.60238746 92.70402373 103.19245427 95.27122757 100.77206421 98.4107666 C95.45450887 103.37760389 90.83723411 103.28559742 83.89526367 103.22705078 C82.51160976 103.22741239 82.51160976 103.22741239 81.10000324 103.2277813 C78.12255932 103.22629192 75.14536771 103.2110763 72.16796875 103.1953125 C70.32637655 103.1923709 68.48478268 103.19033118 66.64318848 103.18920898 C59.8246001 103.17873518 53.00604756 103.15081269 46.1875 103.125 C30.945625 103.08375 15.70375 103.0425 0 103 C0 69.01 0 35.02 0 0 Z " fill="#6E58F1" transform="translate(0,0)"/>
<path d="M0 0 C2.5209627 2.5209627 2.25664898 3.37243223 2.2746582 6.86108398 C2.28895622 8.3779203 2.28895622 8.3779203 2.30354309 9.92539978 C2.30263168 11.02122879 2.30172028 12.1170578 2.30078125 13.24609375 C2.30506638 14.36814713 2.3093515 15.4902005 2.31376648 16.64625549 C2.31951765 19.02270838 2.32000428 21.39917887 2.31567383 23.77563477 C2.31251596 27.41908713 2.33595694 31.06172637 2.36132812 34.70507812 C2.36360117 37.01041564 2.36430459 39.31575534 2.36328125 41.62109375 C2.372491 42.71489853 2.38170074 43.80870331 2.39118958 44.93565369 C2.38496078 45.95003006 2.37873199 46.96440643 2.37231445 48.00952148 C2.37294388 48.90283676 2.3735733 49.79615204 2.3742218 50.71653748 C2 53 2 53 0.65513611 54.82292175 C-1 56 -1 56 -3.85449219 55.82373047 C-8.92085574 54.49697553 -13.5028248 52.30696985 -18.25 50.125 C-19.75820313 49.45404297 -19.75820313 49.45404297 -21.296875 48.76953125 C-22.2559375 48.33253906 -23.215 47.89554688 -24.203125 47.4453125 C-25.07614258 47.04844238 -25.94916016 46.65157227 -26.84863281 46.24267578 C-29 45 -29 45 -31 42 C-31.53524312 37.71805503 -31.53524312 37.71805503 -29.890625 35.51171875 C-27.28192548 33.42583711 -24.56131353 32.47476805 -21.4375 31.3125 C-20.28121094 30.87550781 -19.12492187 30.43851563 -17.93359375 29.98828125 C-15 29 -15 29 -13 29 C-13 28.01 -13 27.02 -13 26 C-13.65226562 25.81824219 -14.30453125 25.63648437 -14.9765625 25.44921875 C-27.01242236 21.98757764 -27.01242236 21.98757764 -31 18 C-30.9777832 14.58398438 -30.9777832 14.58398438 -30 11 C-27.56323242 9.08789062 -27.56323242 9.08789062 -24.35546875 7.65625 C-23.20369141 7.13289063 -22.05191406 6.60953125 -20.86523438 6.0703125 C-19.65158203 5.55210938 -18.43792969 5.03390625 -17.1875 4.5 C-15.97229601 3.94753151 -14.75808863 3.3928653 -13.54492188 2.8359375 C-3.5973425 -1.58027733 -3.5973425 -1.58027733 0 0 Z " fill="#FAF9FE" transform="translate(73,16)"/>
<path d="M0 0 C2.97 0 5.94 0 9 0 C9 14.85 9 29.7 9 45 C-12 45 -12 45 -18 41 C-21.43584221 36.38873808 -22.66502719 32.90307089 -22.390625 27.140625 C-21.46409865 22.06326058 -17.78008292 18.29233029 -14 15 C-10.10835652 13.70278551 -7.10570774 13.86966007 -3 14 C-2.34 14.33 -1.68 14.66 -1 15 C-0.67 10.05 -0.34 5.1 0 0 Z " fill="#0B0F6E" transform="translate(413,29)"/>
<path d="M0 0 C0.86625 0.53625 1.7325 1.0725 2.625 1.625 C5.02708635 3.37820369 5.02708635 3.37820369 8.1875 2.25 C9.80570795 1.53079647 11.41611852 0.79194074 13 0 C16.95343894 -0.63609303 20.51514728 -0.83174081 24.078125 1.1640625 C27.63778181 4.08058804 29.74770247 6.49412565 31 11 C31.23165042 14.44224401 31.18835427 17.86456568 31.125 21.3125 C31.11597656 22.24384766 31.10695312 23.17519531 31.09765625 24.13476562 C31.07418422 26.42328823 31.03831609 28.71167779 31 31 C28.03 31 25.06 31 22 31 C21.94392578 28.86917969 21.94392578 28.86917969 21.88671875 26.6953125 C21.82107438 24.83851458 21.75462652 22.98174493 21.6875 21.125 C21.65366211 19.71927734 21.65366211 19.71927734 21.61914062 18.28515625 C21.58369141 17.38925781 21.54824219 16.49335937 21.51171875 15.5703125 C21.48553467 14.74289551 21.45935059 13.91547852 21.43237305 13.06298828 C21.16903363 10.60672068 21.16903363 10.60672068 18 9 C14.67759676 9.3241369 13.39223697 9.60776303 11 12 C10.63105418 14.03060659 10.63105418 14.03060659 10.5859375 16.3515625 C10.54726562 17.20234375 10.50859375 18.053125 10.46875 18.9296875 C10.42234375 20.26386719 10.42234375 20.26386719 10.375 21.625 C10.33632812 22.5221875 10.29765625 23.419375 10.2578125 24.34375 C10.16341224 26.56215605 10.08061195 28.78105013 10 31 C7.03 31 4.06 31 1 31 C0.96261719 29.66324219 0.92523438 28.32648438 0.88671875 26.94921875 C0.82106345 25.19528423 0.75461596 23.44137924 0.6875 21.6875 C0.66494141 20.80642578 0.64238281 19.92535156 0.61914062 19.01757812 C0.5659668 17.74624023 0.5659668 17.74624023 0.51171875 16.44921875 C0.48553467 15.66893311 0.45935059 14.88864746 0.43237305 14.0847168 C-0.10586626 11.48955845 -0.88388891 10.56577966 -3 9 C-6.12549017 8.74951364 -6.12549017 8.74951364 -9 9 C-9.90833969 11.72501908 -10.18359985 13.62233971 -10.31640625 16.44921875 C-10.35830078 17.29677734 -10.40019531 18.14433594 -10.44335938 19.01757812 C-10.48267578 19.89865234 -10.52199219 20.77972656 -10.5625 21.6875 C-10.60568359 22.58017578 -10.64886719 23.47285156 -10.69335938 24.39257812 C-10.7993522 26.59487344 -10.90017221 28.79741662 -11 31 C-13.97 31 -16.94 31 -20 31 C-20 21.1 -20 11.2 -20 1 C-16.7 1 -13.4 1 -10 1 C-6.82302366 -0.58848817 -3.4599215 -0.41492289 0 0 Z " fill="#090D6E" transform="translate(194,43)"/>
<path d="M0 0 C0.7734375 0.495 0.7734375 0.495 1.5625 1 C1.5625 0.34 1.5625 -0.32 1.5625 -1 C4.5325 -1 7.5025 -1 10.5625 -1 C10.5625 9.23 10.5625 19.46 10.5625 30 C6.89583333 30 3.22916667 30 -0.4375 30 C-1.52998047 30.05220703 -1.52998047 30.05220703 -2.64453125 30.10546875 C-11.72809287 30.39145795 -11.72809287 30.39145795 -15.4375 27 C-19.32690631 22.39753586 -21.24997062 18.25284105 -20.8515625 12.171875 C-20.01374446 7.77728224 -18.30583022 4.56310796 -14.859375 1.6796875 C-10.09263534 -1.39077994 -5.39525364 -2.21343739 0 0 Z " fill="#0A0D6E" transform="translate(463.4375,44)"/>
<path d="M0 0 C3.43601665 0.75534715 3.43601665 0.75534715 10.5625 0.5 C10.5625 10.4 10.5625 20.3 10.5625 30.5 C7.22125 30.5825 3.88 30.665 0.4375 30.75 C-0.60422363 30.78641602 -1.64594727 30.82283203 -2.71923828 30.86035156 C-8.4726084 30.92896263 -11.95144467 30.48208393 -16.4375 26.5 C-19.23510044 23.29098773 -20.34924457 20.20604345 -20.875 16 C-20.17988376 10.43907012 -18.68052831 6.2883835 -14.375 2.625 C-9.57518457 -0.84720691 -5.88184648 -1.20653261 0 0 Z " fill="#05086B" transform="translate(249.4375,43.5)"/>
<path d="M0 0 C2.64 0 5.28 0 8 0 C8 9.9 8 19.8 8 30 C4.33333333 30 0.66666667 30 -3 30 C-3.73734375 30.06960937 -4.4746875 30.13921875 -5.234375 30.2109375 C-10.0428801 30.52453566 -13.18307795 30.44782882 -17 27.3125 C-21.0438567 23.21155356 -22.09345594 19.81892915 -22.4375 14.125 C-22.32676488 8.81762404 -20.72913361 5.70853066 -17 2 C-11.83522611 -2.32724299 -6.23597194 -1.55899298 0 0 Z " fill="#04086B" transform="translate(378,44)"/>
<path d="M0 0 C2.59522843 1.05292125 3.89858608 2.068971 6 4 C6 4.66 6 5.32 6 6 C3.40035259 8.27469149 1.38145614 9.97771845 -2.1796875 10.03515625 C-4.13382059 9.78132758 -6.07031892 9.39924436 -8 9 C-8.33 10.65 -8.66 12.3 -9 14 C-6.17148156 15.19997752 -3.48956946 16.12760763 -0.5 16.875 C3.74968356 18.24096972 6.75266164 19.95173911 9.11328125 23.828125 C10.73151622 27.79173137 10.53720496 31.80184269 10 36 C7.76576111 40.55122736 5.48338581 42.74865849 1 45 C-6.35682063 46.11254372 -11.98777425 45.37252782 -18 41 C-18 40.01 -18 39.02 -18 38 C-15.5 35.8125 -15.5 35.8125 -13 34 C-11.9790625 34.5259375 -11.9790625 34.5259375 -10.9375 35.0625 C-7.2912211 36.22620603 -4.71510022 35.72845102 -1 35 C-0.23283149 32.14921909 -0.23283149 32.14921909 0 29 C-1.53619517 26.91196773 -2.58280906 26.11796972 -5.0859375 25.41015625 C-5.84132812 25.29542969 -6.59671875 25.18070313 -7.375 25.0625 C-12.31177733 24.0911991 -15.31524062 22.32657247 -18.3125 18.1875 C-19.33529387 14.93315587 -19.35124367 12.39535546 -19 9 C-14.37971539 0.41947145 -9.36962962 -1.25739618 0 0 Z " fill="#060A6C" transform="translate(159,29)"/>
<path d="M0 0 C3.44600375 2.06011093 5.46088196 3.58976044 7.71875 6.9765625 C7.50175008 9.45400318 7.10289288 10.59972833 5.32006836 12.34863281 C4.73878174 12.74663086 4.15749512 13.14462891 3.55859375 13.5546875 C2.93017578 13.99296875 2.30175781 14.43125 1.65429688 14.8828125 C0.99494141 15.32625 0.33558594 15.7696875 -0.34375 16.2265625 C-1.00697266 16.68546875 -1.67019531 17.144375 -2.35351562 17.6171875 C-3.98927307 18.74691926 -5.63439234 19.86307423 -7.28125 20.9765625 C-4.97125 20.9765625 -2.66125 20.9765625 -0.28125 20.9765625 C-0.28125 20.3165625 -0.28125 19.6565625 -0.28125 18.9765625 C2.60312779 20.26955944 4.59094421 21.63597613 6.71875 23.9765625 C5.71875 26.9765625 5.71875 26.9765625 3.34375 28.6640625 C-2.15212073 30.65394673 -7.75489766 31.06558308 -13.40625 29.3203125 C-17.27992473 27.38347513 -19.73778711 24.77222124 -21.62109375 20.96484375 C-23.30669032 15.88810615 -23.09501754 10.96803193 -20.71875 6.1640625 C-16.05987686 -0.84053697 -7.77741418 -3.48918239 0 0 Z " fill="#070B6C" transform="translate(344.28125,44.0234375)"/>
<path d="M0 0 C4.30453913 4.50201874 3.51457563 9.55259091 3.5 15.4375 C3.52835938 16.47455078 3.55671875 17.51160156 3.5859375 18.58007812 C3.59846626 23.45689927 3.59964345 26.14618243 0.7421875 30.21484375 C-2.92885147 32.60467966 -4.56011704 32.44562932 -8.71875 31.7109375 C-13.46076936 30.2331164 -16.63795405 27.49385685 -19.9375 23.875 C-21.83958071 18.72819338 -22.29392086 12.94992656 -20.05078125 7.8359375 C-15.14233586 0.55843172 -8.6555867 -1.70164011 0 0 Z " fill="#FBFAFE" transform="translate(36,28)"/>
<path d="M0 0 C0 3.3 0 6.6 0 10 C2.31 10 4.62 10 7 10 C7 12.31 7 14.62 7 17 C4.69 17 2.38 17 0 17 C0.01264048 21.07655482 0.1362967 25.00740926 1 29 C3.85602535 31.39248595 3.85602535 31.39248595 7 32 C7 34.64 7 37.28 7 40 C3.22443495 40.35957762 1.23004592 40.11727831 -2.1875 38.375 C-5.51038117 35.56901146 -6.68470373 34.16510484 -8 30 C-8.23309565 25.65406118 -8.17414762 21.34724052 -8 17 C-9.32 17 -10.64 17 -12 17 C-12 14.69 -12 12.38 -12 10 C-10.68 10 -9.36 10 -8 10 C-8.144375 9.278125 -8.28875 8.55625 -8.4375 7.8125 C-8 5 -8 5 -6.4765625 3.5546875 C-1.5 0 -1.5 0 0 0 Z " fill="#04076A" transform="translate(297,34)"/>
<path d="M0 0 C2.64 0 5.28 0 8 0 C8 14.85 8 29.7 8 45 C5.36 45 2.72 45 0 45 C0 30.15 0 15.3 0 0 Z " fill="#000369" transform="translate(309,29)"/>
<path d="M0 0 C0 2.64 0 5.28 0 8 C-1.423125 8.4021875 -1.423125 8.4021875 -2.875 8.8125 C-6.25267273 9.74986588 -6.25267273 9.74986588 -8 13 C-8.36351504 15.02542148 -8.36351504 15.02542148 -8.4140625 17.23046875 C-8.47207031 18.43413086 -8.47207031 18.43413086 -8.53125 19.66210938 C-8.57765625 20.91217773 -8.57765625 20.91217773 -8.625 22.1875 C-8.68300781 23.4549707 -8.68300781 23.4549707 -8.7421875 24.74804688 C-8.83636279 26.83167524 -8.91926675 28.91580753 -9 31 C-11.64 31 -14.28 31 -17 31 C-17 21.1 -17 11.2 -17 1 C-13.7 1 -10.4 1 -7 1 C-4.53721199 -0.231394 -2.7204945 -0.07159196 0 0 Z " fill="#010469" transform="translate(283,43)"/>
<path d="M0 0 C1.50046875 0.00386719 1.50046875 0.00386719 3.03125 0.0078125 C4.0315625 0.00523438 5.031875 0.00265625 6.0625 0 C8.53125 0.1328125 8.53125 0.1328125 9.53125 1.1328125 C9.73906586 4.06598494 9.85593773 6.94640565 9.90625 9.8828125 C9.94363281 10.69492188 9.98101562 11.50703125 10.01953125 12.34375 C10.08455217 16.77962149 9.96101981 18.57283097 7.171875 22.20703125 C4.53125 24.1328125 4.53125 24.1328125 1.90625 24.1953125 C-1.09467168 22.85279491 -1.88635681 22.03537372 -3.46875 19.1328125 C-3.85984701 16.06221303 -3.7964258 13.03535293 -3.71875 9.9453125 C-3.71359375 9.11322266 -3.7084375 8.28113281 -3.703125 7.42382812 C-3.60885043 0.19414702 -3.60885043 0.19414702 0 0 Z " fill="#F8F7FE" transform="translate(34.46875,63.8671875)"/>
<path d="M0 0 C2.64 0 5.28 0 8 0 C8 9.9 8 19.8 8 30 C5.36 30 2.72 30 0 30 C0 20.1 0 10.2 0 0 Z " fill="#000369" transform="translate(480,44)"/>
<path d="M0 0 C7 1 7 1 8.91015625 2.75 C10.84423095 6.7429284 10.64049899 10.67483265 10 15 C8.375 17.5625 8.375 17.5625 6 19 C4.02 19.33 2.04 19.66 0 20 C0 13.4 0 6.8 0 0 Z " fill="#F8F7FE" transform="translate(78,37)"/>
<path d="M0 0 C3.4375 1 3.4375 1 5.4375 2.625 C6.89385054 6.08383253 6.35055869 8.41298371 5.4375 12 C4.25 13.9375 4.25 13.9375 2.4375 15 C-0.82246064 15.41616519 -2.90553035 15.2766188 -5.9375 14 C-8.04380516 11.40762442 -8.12924997 9.22954793 -7.94140625 5.9453125 C-7.5625 4 -7.5625 4 -6 1.4375 C-3.5625 0 -3.5625 0 0 0 Z " fill="#F1F1F6" transform="translate(459.5625,51)"/>
<path d="M0 0 C3.4375 1 3.4375 1 5.4375 2.625 C6.89385054 6.08383253 6.35055869 8.41298371 5.4375 12 C4.25 13.9375 4.25 13.9375 2.4375 15 C-1.15600675 15.53520313 -2.88131548 15.44814771 -5.9375 13.4375 C-8.18590519 10.06489221 -8.13033945 7.97487617 -7.5625 4 C-5.30132583 0.38212133 -4.292718 0 0 0 Z " fill="#F2F2F7" transform="translate(407.5625,51)"/>
<path d="M0 0 C2.3125 1.5 2.3125 1.5 4 4 C4.59002965 6.96206805 4.39336407 8.90225794 4 12 C1.82200662 14.68060724 0.38998695 14.93500217 -3 15.5 C-6 15 -6 15 -8.4375 12.9375 C-10.48562148 9.08703161 -10.22685696 7.14064223 -9 3 C-6.29775749 0.00823151 -3.96034806 -0.69306091 0 0 Z " fill="#F1F2F6" transform="translate(374,51)"/>
<path d="M0 0 C3.33794538 1.16102448 4.3364746 1.83747557 5.875 5 C6.40793835 8.65443439 6.3503727 10.30522452 4.25 13.375 C1.16313568 15.48706506 -0.4532913 15.61195145 -4.125 15 C-6.5 13.4375 -6.5 13.4375 -8.125 11 C-8.6875 7.5 -8.6875 7.5 -8.125 4 C-5.45946825 0.86408029 -4.13747529 0 0 0 Z " fill="#F3F3F7" transform="translate(246.125,51)"/>
<path d="M0 0 C3 0.25 3 0.25 5 2.25 C4.625 5.375 4.625 5.375 4 8.25 C0.625 8.875 0.625 8.875 -3 9.25 C-5 7.25 -5 7.25 -5.25 4.75 C-4.86630891 0.91308908 -3.76694968 0.31391247 0 0 Z " fill="#111370" transform="translate(484,28.75)"/>
<path d="M0 0 C1.4540625 0.0309375 1.4540625 0.0309375 2.9375 0.0625 C4.0625 2.375 4.0625 2.375 4.9375 5.0625 C3.9475 6.5475 3.9475 6.5475 2.9375 8.0625 C-0.125 8.3125 -0.125 8.3125 -3.0625 8.0625 C-4.0625 7.0625 -4.0625 7.0625 -4.1875 4.0625 C-4.02164894 0.08207447 -4.02164894 0.08207447 0 0 Z " fill="#090B6B" transform="translate(433.0625,65.9375)"/>
<path d="M0 0 C0 4 0 4 -1.4609375 5.484375 C-2.09257812 5.90203125 -2.72421875 6.3196875 -3.375 6.75 C-4.00148438 7.17796875 -4.62796875 7.6059375 -5.2734375 8.046875 C-7 9 -7 9 -9 9 C-9.36337162 5.72965541 -9.28544288 4.39116247 -7.3125 1.6875 C-4.60883753 -0.28544288 -3.27034459 -0.36337162 0 0 Z " fill="#E8E8F0" transform="translate(340,51)"/>
<path d="M0 0 C0.556875 0.7425 1.11375 1.485 1.6875 2.25 C3.93027178 4.91707995 6.22074975 6.91556232 9 9 C6.03 9 3.06 9 0 9 C0 6.03 0 3.06 0 0 Z " fill="#FAFAFE" transform="translate(0,94)"/>
<path d="M0 0 C2.97 0 5.94 0 9 0 C8.2575 0.556875 7.515 1.11375 6.75 1.6875 C4.08292005 3.93027178 2.08443768 6.22074975 0 9 C0 6.03 0 3.06 0 0 Z " fill="#FAFAFE" transform="translate(0,0)"/>
</svg>
