<?xml version="1.0" encoding="UTF-8"?>
<svg version="1.1" xmlns="http://www.w3.org/2000/svg" width="240" height="98">
<path d="M0 0 C79.2 0 158.4 0 240 0 C240 32.34 240 64.68 240 98 C160.8 98 81.6 98 0 98 C0 65.66 0 33.32 0 0 Z " fill="#FDFDFD" transform="translate(0,0)"/>
<path d="M0 0 C0.33 6.6 0.66 13.2 1 20 C1.66 19.67 2.32 19.34 3 19 C9.45373238 18.49761365 15.55942504 18.05558315 21 22 C25.9642273 27.1021225 27.11293489 31.97875145 27.3125 38.9375 C27.18039879 45.60861111 26.03972109 49.50700756 21.75 54.75 C14.95548091 60.30915198 8.58133102 60.8428093 0 60 C-2.31 59.34 -4.62 58.68 -7 58 C-7 39.19 -7 20.38 -7 1 C-3 0 -3 0 0 0 Z " fill="#232323" transform="translate(91,13)"/>
<path d="M0 0 C4.4452839 3.38688297 7.85158692 7.67976076 9.625 13 C10.51580115 21.3608051 9.63835384 28.09358286 4.625 35 C0.09279829 39.27160011 -4.918843 40.3776711 -10.96484375 40.26953125 C-15.91007335 39.71649909 -19.78858653 37.95644539 -22.94921875 34.05859375 C-27.38079414 27.16362116 -28.10779953 21.13304263 -27.375 13 C-25.66545406 7.02147363 -22.33745953 3.56002532 -17.375 0 C-12.40054664 -2.48722668 -5.16561393 -1.53055228 0 0 Z " fill="#242424" transform="translate(207.375,33)"/>
<path d="M0 0 C2.64 0 5.28 0 8 0 C8 12.87 8 25.74 8 39 C-8.25088339 42.61130742 -8.25088339 42.61130742 -16.5 39.8125 C-20.26916441 37.0798558 -22.52501042 34.42496874 -24 30 C-24.08358958 27.78910055 -24.10731764 25.57573922 -24.09765625 23.36328125 C-24.09443359 22.06455078 -24.09121094 20.76582031 -24.08789062 19.42773438 C-24.07953531 18.05598892 -24.07107037 16.68424413 -24.0625 15.3125 C-24.05748335 13.92903805 -24.05292073 12.54557437 -24.04882812 11.16210938 C-24.03702529 7.77469605 -24.02056019 4.38736967 -24 1 C-21.69 1 -19.38 1 -17 1 C-16.9906543 1.82725586 -16.98130859 2.65451172 -16.97167969 3.50683594 C-16.91799681 7.25516415 -16.8343429 11.00224162 -16.75 14.75 C-16.73582031 16.05195312 -16.72164062 17.35390625 -16.70703125 18.6953125 C-16.67480469 19.94570313 -16.64257812 21.19609375 -16.609375 22.484375 C-16.58842773 23.63647461 -16.56748047 24.78857422 -16.54589844 25.97558594 C-16.19472189 29.56562619 -16.19472189 29.56562619 -12 33 C-8.04 33.33 -4.08 33.66 0 34 C0 22.78 0 11.56 0 0 Z " fill="#2D2D2D" transform="translate(64,32)"/>
<path d="M0 0 C3.0190434 1.75299294 5.41511201 3.83022401 7 7 C8.04523623 20.36531572 8.04523623 20.36531572 5.25 24.75 C2.12560781 27.87439219 0.43655674 28.81660978 -3.9375 29.375 C-7.87322087 28.893075 -9.27932839 27.86773494 -12 25 C-14.97817147 19.5571349 -16.01300112 14.97125803 -14.4609375 8.88671875 C-13.44268608 5.8263697 -12.40024139 3.47436017 -10.3125 1 C-6.84615102 -0.49896172 -3.65579004 -0.77185586 0 0 Z " fill="#F9F9F9" transform="translate(202,38)"/>
<path d="M0 0 C3.06172394 1.29272788 4.63118786 2.58031722 6.8125 5.0625 C8.99363278 10.45793373 8.85837667 16.39710253 6.875 21.875 C4.58825073 25.68624879 3.05805146 27.15543115 -1 29 C-4.36773763 29.35718429 -7.63375108 29.38670656 -11 29 C-12 28 -12 28 -12.11352539 25.49975586 C-12.10828857 24.41573486 -12.10305176 23.33171387 -12.09765625 22.21484375 C-12.09443359 21.04501953 -12.09121094 19.87519531 -12.08789062 18.66992188 C-12.07951172 17.43822266 -12.07113281 16.20652344 -12.0625 14.9375 C-12.05798828 13.70193359 -12.05347656 12.46636719 -12.04882812 11.19335938 C-12.03699608 8.12885883 -12.02051173 5.06445279 -12 2 C-8.03674664 -0.21553807 -4.47633681 -0.57068836 0 0 Z " fill="#F9F9F9" transform="translate(103,38)"/>
<path d="M0 0 C-0.33 1.98 -0.66 3.96 -1 6 C-1.88042969 5.94199219 -2.76085937 5.88398437 -3.66796875 5.82421875 C-10.00435268 5.33761496 -10.00435268 5.33761496 -15.94140625 7.04296875 C-20.60887603 11.794035 -20.39054456 16.4395436 -20.35546875 22.78125 C-19.8394237 27.45400953 -18.5589062 29.02045062 -15 32 C-9.65574163 33.78141946 -4.45219759 33.06384343 1 32 C1 33.98 1 35.96 1 38 C-4.75267149 40.59597089 -10.99996205 41.3134453 -17.09375 39.3125 C-21.89687266 36.78454071 -25.57970957 32.84058087 -28 28 C-29.32728685 10.36604612 -29.32728685 10.36604612 -24.52734375 4.44921875 C-17.73700549 -1.99378763 -8.89603939 -2.96534646 0 0 Z " fill="#232323" transform="translate(174,33)"/>
<path d="M0 0 C2.64 0 5.28 0 8 0 C8 13.2 8 26.4 8 40 C5.36 40 2.72 40 0 40 C0 26.8 0 13.6 0 0 Z " fill="#373737" transform="translate(128,32)"/>
<path d="M0 0 C4.55555556 0.55555556 4.55555556 0.55555556 6 2 C6.125 5 6.125 5 6 8 C5 9 5 9 2 9.125 C-1 9 -1 9 -2 8 C-2.1875 5.0625 -2.1875 5.0625 -2 2 C-1.34 1.34 -0.68 0.68 0 0 Z " fill="#252525" transform="translate(130,16)"/>
</svg>
